<svg width="70" height="104" viewBox="0 0 70 104" fill="none" xmlns="http://www.w3.org/2000/svg">
<path d="M0.34082 104H-0.65918V105H0.34082V104ZM0.34082 89.8887V88.8887H-0.65918V89.8887H0.34082ZM18.0215 88.3115L17.4735 87.4751L18.0215 88.3115ZM20.4287 28.8779H21.4287V27.8779H20.4287V28.8779ZM0.34082 28.8779L-0.659163 28.872L-0.66515 29.8779H0.34082V28.8779ZM0.423828 14.9326L0.409441 13.9327L-0.570322 13.9468L-0.576155 14.9267L0.423828 14.9326ZM28.5635 0.489258V-0.510742H27.8686L27.6263 0.140526L28.5635 0.489258ZM50.3945 0.489258H51.3945V-0.510742H50.3945V0.489258ZM52.3867 87.9795L51.6948 88.7015L52.3867 87.9795ZM69.5693 89.8887H70.5693V88.8887H69.5693V89.8887ZM69.5693 104V105H70.5693V104H69.5693ZM1.34082 104V89.8887H-0.65918V104H1.34082ZM0.34082 90.8887H8.06055V88.8887H0.34082V90.8887ZM8.06055 90.8887C10.6078 90.8887 12.7535 90.7561 14.484 90.4821C16.1943 90.2113 17.591 89.7891 18.5695 89.148L17.4735 87.4751C16.8471 87.8854 15.7813 88.2518 14.1713 88.5067C12.5815 88.7584 10.5491 88.8887 8.06055 88.8887V90.8887ZM18.5695 89.148C19.6507 88.4396 20.3519 87.2279 20.7873 85.7263C21.2251 84.2167 21.4287 82.3001 21.4287 80.0107H19.4287C19.4287 82.2038 19.2311 83.9119 18.8665 85.1692C18.4995 86.4346 17.9971 87.132 17.4735 87.4751L18.5695 89.148ZM21.4287 80.0107V76.7734H19.4287V80.0107H21.4287ZM21.4287 76.7734V28.8779H19.4287V76.7734H21.4287ZM20.4287 27.8779H0.34082V29.8779H20.4287V27.8779ZM1.3408 28.8839L1.42381 14.9386L-0.576155 14.9267L-0.659163 28.872L1.3408 28.8839ZM0.438215 15.9325C8.21691 15.8206 14.5559 14.5621 19.3902 12.0874L18.4789 10.3071C14.0164 12.5915 8.01486 13.8233 0.409441 13.9327L0.438215 15.9325ZM19.3902 12.0874C24.2543 9.5975 27.64 5.83868 29.5007 0.83799L27.6263 0.140526C25.9453 4.65807 22.9118 8.03792 18.4789 10.3071L19.3902 12.0874ZM28.5635 1.48926H50.3945V-0.510742H28.5635V1.48926ZM49.3945 0.489258V77.8525H51.3945V0.489258H49.3945ZM49.3945 77.8525C49.3945 80.6234 49.5617 82.9089 49.9114 84.6862C50.2535 86.4252 50.8004 87.8444 51.6948 88.7015L53.0786 87.2575C52.6449 86.8418 52.1957 85.9368 51.8738 84.3001C51.5593 82.7018 51.3945 80.5602 51.3945 77.8525H49.3945ZM51.6948 88.7015C52.5792 89.549 54.0221 90.0685 55.7958 90.3949C57.6091 90.7285 59.9384 90.8887 62.7627 90.8887V88.8887C59.9978 88.8887 57.8032 88.7306 56.1578 88.4279C54.4728 88.1179 53.5224 87.6828 53.0786 87.2575L51.6948 88.7015ZM62.7627 90.8887H69.5693V88.8887H62.7627V90.8887ZM68.5693 89.8887V104H70.5693V89.8887H68.5693ZM69.5693 103H0.34082V105H69.5693V103Z" fill="url(#paint0_linear_0_116)"/>
<defs>
<linearGradient id="paint0_linear_0_116" x1="85.5" y1="3.33334" x2="117.104" y2="91.4804" gradientUnits="userSpaceOnUse">
<stop stop-color="#07A568"/>
<stop offset="1" stop-color="#07A568" stop-opacity="0"/>
</linearGradient>
</defs>
</svg>
