<svg width="93" height="111" viewBox="0 0 93 111" fill="none" xmlns="http://www.w3.org/2000/svg">
<path d="M0.387695 107L-0.598699 107.164L-0.459432 108H0.387695V107ZM0.138672 104.842H-0.861328V104.877L-0.858787 104.913L0.138672 104.842ZM4.04004 83.8408L3.14558 83.3936L3.1419 83.4011L4.04004 83.8408ZM16.3252 68.5674L15.6682 67.8135L15.6646 67.8167L16.3252 68.5674ZM34.7529 56.4482L34.275 55.5698L34.2649 55.5754L34.7529 56.4482ZM42.9707 51.7168L42.4431 50.8673L42.4358 50.8718L42.4286 50.8765L42.9707 51.7168ZM53.7617 42.5859L52.9395 42.0167L52.9372 42.0201L53.7617 42.5859ZM51.1885 20.6719L50.5552 21.4458L50.5616 21.451L50.5681 21.4562L51.1885 20.6719ZM16.6572 27.8936L15.7306 27.5175L15.0142 29.2831L16.8742 28.8697L16.6572 27.8936ZM19.4795 27.3125L19.3057 26.3277L19.2952 26.3296L19.4795 27.3125ZM29.2744 48.7285L29.9464 49.4691L29.9471 49.4685L29.2744 48.7285ZM5.03613 47.7324L4.31734 48.4277L5.03613 47.7324ZM12.6729 10.2129L13.2787 11.0084L13.2795 11.0078L12.6729 10.2129ZM77.2529 9.96387L76.6435 10.7567L76.6461 10.7587L77.2529 9.96387ZM81.6523 55.0371L82.3773 55.7259L82.3808 55.7223L81.6523 55.0371ZM58.3271 67.9033L58.0436 66.9443L58.0331 66.9475L58.3271 67.9033ZM52.2676 69.6465L52.001 68.6827L51.9938 68.6847L51.9866 68.6868L52.2676 69.6465ZM20.0605 86.7461L19.2482 86.1629L20.5414 87.6229L20.0605 86.7461ZM30.4365 82.5957L30.6827 83.565L30.6932 83.5622L30.4365 82.5957ZM56.252 83.0938L56.034 84.0697L56.0431 84.0717L56.252 83.0938ZM77.0039 70.4766V69.4766H76.0039V70.4766H77.0039ZM91.9453 70.4766L92.9428 70.4053L92.8764 69.4766H91.9453V70.4766ZM92.0283 72.9668H91.0283V73.0001L91.0305 73.0333L92.0283 72.9668ZM42.7217 105.506L42.343 106.431L42.3444 106.432L42.7217 105.506ZM40.0654 104.427L40.4368 103.498L40.4275 103.495L40.418 103.491L40.0654 104.427ZM30.7686 101.355L30.4938 102.317L30.5072 102.321L30.5207 102.324L30.7686 101.355ZM18.7324 102.02L18.1903 101.179L18.184 101.183L18.1777 101.187L18.7324 102.02ZM14.748 107V108H15.3946L15.66 107.41L14.748 107ZM1.37409 106.836C1.26927 106.207 1.18957 105.519 1.13613 104.771L-0.858787 104.913C-0.801549 105.714 -0.715228 106.465 -0.598699 107.164L1.37409 106.836ZM1.13867 104.842C1.13867 104.84 1.13867 104.839 1.13867 104.837C1.13867 104.836 1.13867 104.834 1.13867 104.833C1.13867 104.831 1.13867 104.83 1.13867 104.828C1.13867 104.827 1.13867 104.825 1.13867 104.824C1.13867 104.822 1.13867 104.821 1.13867 104.819C1.13867 104.817 1.13867 104.816 1.13867 104.814C1.13867 104.813 1.13867 104.811 1.13867 104.81C1.13867 104.808 1.13867 104.807 1.13867 104.805C1.13867 104.804 1.13867 104.802 1.13867 104.801C1.13867 104.799 1.13867 104.798 1.13867 104.796C1.13867 104.794 1.13867 104.793 1.13867 104.791C1.13867 104.79 1.13867 104.788 1.13867 104.787C1.13867 104.785 1.13867 104.784 1.13867 104.782C1.13867 104.78 1.13867 104.779 1.13867 104.777C1.13867 104.776 1.13867 104.774 1.13867 104.773C1.13867 104.771 1.13867 104.77 1.13867 104.768C1.13867 104.766 1.13867 104.765 1.13867 104.763C1.13867 104.762 1.13867 104.76 1.13867 104.759C1.13867 104.757 1.13867 104.756 1.13867 104.754C1.13867 104.752 1.13867 104.751 1.13867 104.749C1.13867 104.748 1.13867 104.746 1.13867 104.745C1.13867 104.743 1.13867 104.741 1.13867 104.74C1.13867 104.738 1.13867 104.737 1.13867 104.735C1.13867 104.733 1.13867 104.732 1.13867 104.73C1.13867 104.729 1.13867 104.727 1.13867 104.726C1.13867 104.724 1.13867 104.722 1.13867 104.721C1.13867 104.719 1.13867 104.718 1.13867 104.716C1.13867 104.714 1.13867 104.713 1.13867 104.711C1.13867 104.71 1.13867 104.708 1.13867 104.706C1.13867 104.705 1.13867 104.703 1.13867 104.702C1.13867 104.7 1.13867 104.698 1.13867 104.697C1.13867 104.695 1.13867 104.694 1.13867 104.692C1.13867 104.69 1.13867 104.689 1.13867 104.687C1.13867 104.686 1.13867 104.684 1.13867 104.682C1.13867 104.681 1.13867 104.679 1.13867 104.677C1.13867 104.676 1.13867 104.674 1.13867 104.673C1.13867 104.671 1.13867 104.669 1.13867 104.668C1.13867 104.666 1.13867 104.665 1.13867 104.663C1.13867 104.661 1.13867 104.66 1.13867 104.658C1.13867 104.656 1.13867 104.655 1.13867 104.653C1.13867 104.651 1.13867 104.65 1.13867 104.648C1.13867 104.647 1.13867 104.645 1.13867 104.643C1.13867 104.642 1.13867 104.64 1.13867 104.638C1.13867 104.637 1.13867 104.635 1.13867 104.633C1.13867 104.632 1.13867 104.63 1.13867 104.629C1.13867 104.627 1.13867 104.625 1.13867 104.624C1.13867 104.622 1.13867 104.62 1.13867 104.619C1.13867 104.617 1.13867 104.615 1.13867 104.614C1.13867 104.612 1.13867 104.61 1.13867 104.609C1.13867 104.607 1.13867 104.605 1.13867 104.604C1.13867 104.602 1.13867 104.6 1.13867 104.599C1.13867 104.597 1.13867 104.595 1.13867 104.594C1.13867 104.592 1.13867 104.59 1.13867 104.589C1.13867 104.587 1.13867 104.585 1.13867 104.584C1.13867 104.582 1.13867 104.58 1.13867 104.579C1.13867 104.577 1.13867 104.575 1.13867 104.574C1.13867 104.572 1.13867 104.57 1.13867 104.569C1.13867 104.567 1.13867 104.565 1.13867 104.564C1.13867 104.562 1.13867 104.56 1.13867 104.559C1.13867 104.557 1.13867 104.555 1.13867 104.553C1.13867 104.552 1.13867 104.55 1.13867 104.548C1.13867 104.547 1.13867 104.545 1.13867 104.543C1.13867 104.542 1.13867 104.54 1.13867 104.538C1.13867 104.537 1.13867 104.535 1.13867 104.533C1.13867 104.531 1.13867 104.53 1.13867 104.528C1.13867 104.526 1.13867 104.525 1.13867 104.523C1.13867 104.521 1.13867 104.519 1.13867 104.518C1.13867 104.516 1.13867 104.514 1.13867 104.513C1.13867 104.511 1.13867 104.509 1.13867 104.507C1.13867 104.506 1.13867 104.504 1.13867 104.502C1.13867 104.501 1.13867 104.499 1.13867 104.497C1.13867 104.495 1.13867 104.494 1.13867 104.492C1.13867 104.49 1.13867 104.489 1.13867 104.487C1.13867 104.485 1.13867 104.483 1.13867 104.482C1.13867 104.48 1.13867 104.478 1.13867 104.476C1.13867 104.475 1.13867 104.473 1.13867 104.471C1.13867 104.469 1.13867 104.468 1.13867 104.466C1.13867 104.464 1.13867 104.462 1.13867 104.461C1.13867 104.459 1.13867 104.457 1.13867 104.456C1.13867 104.454 1.13867 104.452 1.13867 104.45C1.13867 104.449 1.13867 104.447 1.13867 104.445C1.13867 104.443 1.13867 104.442 1.13867 104.44C1.13867 104.438 1.13867 104.436 1.13867 104.434C1.13867 104.433 1.13867 104.431 1.13867 104.429C1.13867 104.427 1.13867 104.426 1.13867 104.424C1.13867 104.422 1.13867 104.42 1.13867 104.419C1.13867 104.417 1.13867 104.415 1.13867 104.413C1.13867 104.412 1.13867 104.41 1.13867 104.408C1.13867 104.406 1.13867 104.404 1.13867 104.403C1.13867 104.401 1.13867 104.399 1.13867 104.397C1.13867 104.396 1.13867 104.394 1.13867 104.392C1.13867 104.39 1.13867 104.388 1.13867 104.387C1.13867 104.385 1.13867 104.383 1.13867 104.381C1.13867 104.38 1.13867 104.378 1.13867 104.376C1.13867 104.374 1.13867 104.372 1.13867 104.371C1.13867 104.369 1.13867 104.367 1.13867 104.365C1.13867 104.363 1.13867 104.362 1.13867 104.36C1.13867 104.358 1.13867 104.356 1.13867 104.354C1.13867 104.353 1.13867 104.351 1.13867 104.349C1.13867 104.347 1.13867 104.345 1.13867 104.344C1.13867 104.342 1.13867 104.34 1.13867 104.338C1.13867 104.336 1.13867 104.334 1.13867 104.333C1.13867 104.331 1.13867 104.329 1.13867 104.327C1.13867 104.325 1.13867 104.324 1.13867 104.322C1.13867 104.32 1.13867 104.318 1.13867 104.316C1.13867 104.314 1.13867 104.313 1.13867 104.311C1.13867 104.309 1.13867 104.307 1.13867 104.305C1.13867 104.303 1.13867 104.302 1.13867 104.3C1.13867 104.298 1.13867 104.296 1.13867 104.294C1.13867 104.292 1.13867 104.291 1.13867 104.289C1.13867 104.287 1.13867 104.285 1.13867 104.283C1.13867 104.281 1.13867 104.28 1.13867 104.278C1.13867 104.276 1.13867 104.274 1.13867 104.272C1.13867 104.27 1.13867 104.269 1.13867 104.267C1.13867 104.265 1.13867 104.263 1.13867 104.261C1.13867 104.259 1.13867 104.257 1.13867 104.256C1.13867 104.254 1.13867 104.252 1.13867 104.25C1.13867 104.248 1.13867 104.246 1.13867 104.244C1.13867 104.243 1.13867 104.241 1.13867 104.239C1.13867 104.237 1.13867 104.235 1.13867 104.233C1.13867 104.231 1.13867 104.229 1.13867 104.228C1.13867 104.226 1.13867 104.224 1.13867 104.222C1.13867 104.22 1.13867 104.218 1.13867 104.216C1.13867 104.214 1.13867 104.213 1.13867 104.211C1.13867 104.209 1.13867 104.207 1.13867 104.205C1.13867 104.203 1.13867 104.201 1.13867 104.199C1.13867 104.198 1.13867 104.196 1.13867 104.194C1.13867 104.192 1.13867 104.19 1.13867 104.188C1.13867 104.186 1.13867 104.184 1.13867 104.182C1.13867 104.181 1.13867 104.179 1.13867 104.177C1.13867 104.175 1.13867 104.173 1.13867 104.171C1.13867 104.169 1.13867 104.167 1.13867 104.165C1.13867 104.163 1.13867 104.162 1.13867 104.16C1.13867 104.158 1.13867 104.156 1.13867 104.154C1.13867 104.152 1.13867 104.15 1.13867 104.148C1.13867 104.146 1.13867 104.144 1.13867 104.142C1.13867 104.141 1.13867 104.139 1.13867 104.137C1.13867 104.135 1.13867 104.133 1.13867 104.131C1.13867 104.129 1.13867 104.127 1.13867 104.125C1.13867 104.123 1.13867 104.121 1.13867 104.119C1.13867 104.117 1.13867 104.116 1.13867 104.114C1.13867 104.112 1.13867 104.11 1.13867 104.108C1.13867 104.106 1.13867 104.104 1.13867 104.102C1.13867 104.1 1.13867 104.098 1.13867 104.096C1.13867 104.094 1.13867 104.092 1.13867 104.09C1.13867 104.088 1.13867 104.086 1.13867 104.085C1.13867 104.083 1.13867 104.081 1.13867 104.079C1.13867 104.077 1.13867 104.075 1.13867 104.073C1.13867 104.071 1.13867 104.069 1.13867 104.067C1.13867 104.065 1.13867 104.063 1.13867 104.061C1.13867 104.059 1.13867 104.057 1.13867 104.055C1.13867 104.053 1.13867 104.051 1.13867 104.049C1.13867 104.047 1.13867 104.045 1.13867 104.043C1.13867 104.042 1.13867 104.04 1.13867 104.038C1.13867 104.036 1.13867 104.034 1.13867 104.032C1.13867 104.03 1.13867 104.028 1.13867 104.026C1.13867 104.024 1.13867 104.022 1.13867 104.02C1.13867 104.018 1.13867 104.016 1.13867 104.014C1.13867 104.012 1.13867 104.01 1.13867 104.008C1.13867 104.006 1.13867 104.004 1.13867 104.002C1.13867 104 1.13867 103.998 1.13867 103.996C1.13867 103.994 1.13867 103.992 1.13867 103.99C1.13867 103.988 1.13867 103.986 1.13867 103.984C1.13867 103.982 1.13867 103.98 1.13867 103.978C1.13867 103.976 1.13867 103.974 1.13867 103.972C1.13867 103.97 1.13867 103.968 1.13867 103.966C1.13867 103.964 1.13867 103.962 1.13867 103.96C1.13867 103.958 1.13867 103.956 1.13867 103.954C1.13867 103.952 1.13867 103.95 1.13867 103.948C1.13867 103.946 1.13867 103.944 1.13867 103.942C1.13867 103.94 1.13867 103.938 1.13867 103.936C1.13867 103.934 1.13867 103.932 1.13867 103.93C1.13867 103.928 1.13867 103.926 1.13867 103.924C1.13867 103.922 1.13867 103.92 1.13867 103.918C1.13867 103.916 1.13867 103.914 1.13867 103.912C1.13867 103.91 1.13867 103.908 1.13867 103.906C1.13867 103.903 1.13867 103.901 1.13867 103.899C1.13867 103.897 1.13867 103.895 1.13867 103.893C1.13867 103.891 1.13867 103.889 1.13867 103.887C1.13867 103.885 1.13867 103.883 1.13867 103.881C1.13867 103.879 1.13867 103.877 1.13867 103.875C1.13867 103.873 1.13867 103.871 1.13867 103.869C1.13867 103.867 1.13867 103.865 1.13867 103.863C1.13867 103.861 1.13867 103.859 1.13867 103.856C1.13867 103.854 1.13867 103.852 1.13867 103.85C1.13867 103.848 1.13867 103.846 1.13867 103.844C1.13867 103.842 1.13867 103.84 1.13867 103.838C1.13867 103.836 1.13867 103.834 1.13867 103.832C1.13867 103.83 1.13867 103.828 1.13867 103.825C1.13867 103.823 1.13867 103.821 1.13867 103.819C1.13867 103.817 1.13867 103.815 1.13867 103.813C1.13867 103.811 1.13867 103.809 1.13867 103.807C1.13867 103.805 1.13867 103.803 1.13867 103.801C1.13867 103.798 1.13867 103.796 1.13867 103.794C1.13867 103.792 1.13867 103.79 1.13867 103.788C1.13867 103.786 1.13867 103.784 1.13867 103.782C1.13867 103.78 1.13867 103.778 1.13867 103.775C1.13867 103.773 1.13867 103.771 1.13867 103.769C1.13867 103.767 1.13867 103.765 1.13867 103.763C1.13867 103.761 1.13867 103.759 1.13867 103.757C1.13867 103.754 1.13867 103.752 1.13867 103.75C1.13867 103.748 1.13867 103.746 1.13867 103.744C1.13867 103.742 1.13867 103.74 1.13867 103.738C1.13867 103.735 1.13867 103.733 1.13867 103.731C1.13867 103.729 1.13867 103.727 1.13867 103.725C1.13867 103.723 1.13867 103.721 1.13867 103.719C1.13867 103.716 1.13867 103.714 1.13867 103.712C1.13867 103.71 1.13867 103.708 1.13867 103.706C1.13867 103.704 1.13867 103.702 1.13867 103.699C1.13867 103.697 1.13867 103.695 1.13867 103.693C1.13867 103.691 1.13867 103.689 1.13867 103.687C1.13867 103.684 1.13867 103.682 1.13867 103.68C1.13867 103.678 1.13867 103.676 1.13867 103.674C1.13867 103.672 1.13867 103.669 1.13867 103.667C1.13867 103.665 1.13867 103.663 1.13867 103.661C1.13867 103.659 1.13867 103.657 1.13867 103.654C1.13867 103.652 1.13867 103.65 1.13867 103.648C1.13867 103.646 1.13867 103.644 1.13867 103.642C1.13867 103.639 1.13867 103.637 1.13867 103.635C1.13867 103.633 1.13867 103.631 1.13867 103.629C1.13867 103.626 1.13867 103.624 1.13867 103.622C1.13867 103.62 1.13867 103.618 1.13867 103.616C1.13867 103.613 1.13867 103.611 1.13867 103.609C1.13867 103.607 1.13867 103.605 1.13867 103.603C1.13867 103.6 1.13867 103.598 1.13867 103.596C1.13867 103.594 1.13867 103.592 1.13867 103.589C1.13867 103.587 1.13867 103.585 1.13867 103.583C1.13867 103.581 1.13867 103.579 1.13867 103.576C1.13867 103.574 1.13867 103.572 1.13867 103.57C1.13867 103.568 1.13867 103.565 1.13867 103.563C1.13867 103.561 1.13867 103.559 1.13867 103.557C1.13867 103.554 1.13867 103.552 1.13867 103.55C1.13867 103.548 1.13867 103.546 1.13867 103.543C1.13867 103.541 1.13867 103.539 1.13867 103.537C1.13867 103.535 1.13867 103.532 1.13867 103.53C1.13867 103.528 1.13867 103.526 1.13867 103.524C1.13867 103.521 1.13867 103.519 1.13867 103.517C1.13867 103.515 1.13867 103.513 1.13867 103.51C1.13867 103.508 1.13867 103.506 1.13867 103.504C1.13867 103.501 1.13867 103.499 1.13867 103.497C1.13867 103.495 1.13867 103.493 1.13867 103.49C1.13867 103.488 1.13867 103.486 1.13867 103.484C1.13867 103.481 1.13867 103.479 1.13867 103.477C1.13867 103.475 1.13867 103.472 1.13867 103.47C1.13867 103.468 1.13867 103.466 1.13867 103.464C1.13867 103.461 1.13867 103.459 1.13867 103.457C1.13867 103.455 1.13867 103.452 1.13867 103.45C1.13867 103.448 1.13867 103.446 1.13867 103.443C1.13867 103.441 1.13867 103.439 1.13867 103.437C1.13867 103.434 1.13867 103.432 1.13867 103.43C1.13867 103.428 1.13867 103.425 1.13867 103.423C1.13867 103.421 1.13867 103.419 1.13867 103.416C1.13867 103.414 1.13867 103.412 1.13867 103.41C1.13867 103.407 1.13867 103.405 1.13867 103.403C1.13867 103.4 1.13867 103.398 1.13867 103.396C1.13867 103.394 1.13867 103.391 1.13867 103.389C1.13867 103.387 1.13867 103.385 1.13867 103.382C1.13867 103.38 1.13867 103.378 1.13867 103.376C1.13867 103.373 1.13867 103.371 1.13867 103.369C1.13867 103.366 1.13867 103.364 1.13867 103.362C1.13867 103.36 1.13867 103.357 1.13867 103.355C1.13867 103.353 1.13867 103.35 1.13867 103.348C1.13867 103.346 1.13867 103.344 1.13867 103.341C1.13867 103.339 1.13867 103.337 1.13867 103.334C1.13867 103.332 1.13867 103.33 1.13867 103.328C1.13867 103.325 1.13867 103.323 1.13867 103.321C1.13867 103.318 1.13867 103.316 1.13867 103.314C1.13867 103.311 1.13867 103.309 1.13867 103.307C1.13867 103.305 1.13867 103.302 1.13867 103.3C1.13867 103.298 1.13867 103.295 1.13867 103.293C1.13867 103.291 1.13867 103.288 1.13867 103.286C1.13867 103.284 1.13867 103.281 1.13867 103.279C1.13867 103.277 1.13867 103.274 1.13867 103.272C1.13867 103.27 1.13867 103.267 1.13867 103.265C1.13867 103.263 1.13867 103.261 1.13867 103.258C1.13867 103.256 1.13867 103.254 1.13867 103.251C1.13867 103.249 1.13867 103.247 1.13867 103.244C1.13867 103.242 1.13867 103.24 1.13867 103.237C1.13867 103.235 1.13867 103.233 1.13867 103.23C1.13867 103.228 1.13867 103.226 1.13867 103.223C1.13867 103.221 1.13867 103.219 1.13867 103.216C1.13867 103.214 1.13867 103.211 1.13867 103.209C1.13867 103.207 1.13867 103.204 1.13867 103.202C1.13867 103.2 1.13867 103.197 1.13867 103.195C1.13867 103.193 1.13867 103.19 1.13867 103.188C1.13867 103.186 1.13867 103.183 1.13867 103.181C1.13867 103.179 1.13867 103.176 1.13867 103.174C1.13867 103.171 1.13867 103.169 1.13867 103.167C1.13867 103.164 1.13867 103.162 1.13867 103.16C1.13867 103.157 1.13867 103.155 1.13867 103.153C1.13867 103.15 1.13867 103.148 1.13867 103.145C1.13867 103.143 1.13867 103.141 1.13867 103.138C1.13867 103.136 1.13867 103.134 1.13867 103.131C1.13867 103.129 1.13867 103.126 1.13867 103.124C1.13867 103.122 1.13867 103.119 1.13867 103.117C1.13867 103.114 1.13867 103.112 1.13867 103.11C1.13867 103.107 1.13867 103.105 1.13867 103.103C1.13867 103.1 1.13867 103.098 1.13867 103.095C1.13867 103.093 1.13867 103.091 1.13867 103.088C1.13867 103.086 1.13867 103.083 1.13867 103.081C1.13867 103.079 1.13867 103.076 1.13867 103.074C1.13867 103.071 1.13867 103.069 1.13867 103.067C1.13867 103.064 1.13867 103.062 1.13867 103.059C1.13867 103.057 1.13867 103.055 1.13867 103.052C1.13867 103.05 1.13867 103.047 1.13867 103.045C1.13867 103.042 1.13867 103.04 1.13867 103.038C1.13867 103.035 1.13867 103.033 1.13867 103.03C1.13867 103.028 1.13867 103.026 1.13867 103.023C1.13867 103.021 1.13867 103.018 1.13867 103.016C1.13867 103.013 1.13867 103.011 1.13867 103.009C1.13867 103.006 1.13867 103.004 1.13867 103.001C1.13867 102.999 1.13867 102.996 1.13867 102.994C1.13867 102.992 1.13867 102.989 1.13867 102.987C1.13867 102.984 1.13867 102.982 1.13867 102.979C1.13867 102.977 1.13867 102.974 1.13867 102.972C1.13867 102.97 1.13867 102.967 1.13867 102.965C1.13867 102.962 1.13867 102.96 1.13867 102.957C1.13867 102.955 1.13867 102.952 1.13867 102.95C1.13867 102.947 1.13867 102.945 1.13867 102.943C1.13867 102.94 1.13867 102.938 1.13867 102.935C1.13867 102.933 1.13867 102.93 1.13867 102.928C1.13867 102.925 1.13867 102.923 1.13867 102.92C1.13867 102.918 1.13867 102.916 1.13867 102.913C1.13867 102.911 1.13867 102.908 1.13867 102.906C1.13867 102.903 1.13867 102.901 1.13867 102.898C1.13867 102.896 1.13867 102.893 1.13867 102.891C1.13867 102.888 1.13867 102.886 1.13867 102.883C1.13867 102.881 1.13867 102.878 1.13867 102.876C1.13867 102.873 1.13867 102.871 1.13867 102.868C1.13867 102.866 1.13867 102.863 1.13867 102.861C1.13867 102.859 1.13867 102.856 1.13867 102.854C1.13867 102.851 1.13867 102.849 1.13867 102.846C1.13867 102.844 1.13867 102.841 1.13867 102.839C1.13867 102.836 1.13867 102.834 1.13867 102.831C1.13867 102.829 1.13867 102.826 1.13867 102.824C1.13867 102.821 1.13867 102.819 1.13867 102.816C1.13867 102.814 1.13867 102.811 1.13867 102.809C1.13867 102.806 1.13867 102.804 1.13867 102.801C1.13867 102.798 1.13867 102.796 1.13867 102.793C1.13867 102.791 1.13867 102.788 1.13867 102.786C1.13867 102.783 1.13867 102.781 1.13867 102.778C1.13867 102.776 1.13867 102.773 1.13867 102.771C1.13867 102.768 1.13867 102.766 1.13867 102.763C1.13867 102.761 1.13867 102.758 1.13867 102.756C1.13867 102.753 1.13867 102.751 1.13867 102.748C1.13867 102.745 1.13867 102.743 1.13867 102.74C1.13867 102.738 1.13867 102.735 1.13867 102.733C1.13867 102.73 1.13867 102.728 1.13867 102.725C1.13867 102.723 1.13867 102.72 1.13867 102.718C1.13867 102.715 1.13867 102.712 1.13867 102.71C1.13867 102.707 1.13867 102.705 1.13867 102.702C1.13867 102.7 1.13867 102.697 1.13867 102.695C1.13867 102.692 1.13867 102.69 1.13867 102.687C1.13867 102.684 1.13867 102.682 1.13867 102.679C1.13867 102.677 1.13867 102.674 1.13867 102.672C1.13867 102.669 1.13867 102.666 1.13867 102.664C1.13867 102.661 1.13867 102.659 1.13867 102.656C1.13867 102.654 1.13867 102.651 1.13867 102.648C1.13867 102.646 1.13867 102.643 1.13867 102.641C1.13867 102.638 1.13867 102.636 1.13867 102.633C1.13867 102.63 1.13867 102.628 1.13867 102.625C1.13867 102.623 1.13867 102.62 1.13867 102.618C1.13867 102.615 1.13867 102.612 1.13867 102.61C1.13867 102.607 1.13867 102.605 1.13867 102.602C1.13867 102.599 1.13867 102.597 1.13867 102.594C1.13867 102.592 1.13867 102.589 1.13867 102.587C1.13867 102.584 1.13867 102.581 1.13867 102.579C1.13867 102.576 1.13867 102.574 1.13867 102.571C1.13867 102.568 1.13867 102.566 1.13867 102.563C1.13867 102.561 1.13867 102.558 1.13867 102.555C1.13867 102.553 1.13867 102.55 1.13867 102.547C1.13867 102.545 1.13867 102.542 1.13867 102.54C1.13867 102.537 1.13867 102.534 1.13867 102.532C1.13867 102.529 1.13867 102.527 1.13867 102.524C1.13867 102.521 1.13867 102.519 1.13867 102.516C1.13867 102.513 1.13867 102.511 1.13867 102.508C1.13867 102.506 1.13867 102.503 1.13867 102.5C1.13867 102.498 1.13867 102.495 1.13867 102.492C1.13867 102.49 1.13867 102.487 1.13867 102.485C1.13867 102.482 1.13867 102.479 1.13867 102.477C1.13867 102.474 1.13867 102.471 1.13867 102.469C1.13867 102.466 1.13867 102.463 1.13867 102.461C1.13867 102.458 1.13867 102.456 1.13867 102.453C1.13867 102.45 1.13867 102.448 1.13867 102.445C1.13867 102.442 1.13867 102.44 1.13867 102.437C1.13867 102.434 1.13867 102.432 1.13867 102.429C1.13867 102.426 1.13867 102.424 1.13867 102.421C1.13867 102.418 1.13867 102.416 1.13867 102.413C1.13867 102.41 1.13867 102.408 1.13867 102.405C1.13867 102.402 1.13867 102.4 1.13867 102.397C1.13867 102.394 1.13867 102.392 1.13867 102.389C1.13867 102.386 1.13867 102.384 1.13867 102.381C1.13867 102.378 1.13867 102.376 1.13867 102.373C1.13867 102.37 1.13867 102.368 1.13867 102.365C1.13867 102.362 1.13867 102.36 1.13867 102.357C1.13867 102.354 1.13867 102.352 1.13867 102.349C1.13867 102.346 1.13867 102.344 1.13867 102.341C1.13867 102.338 1.13867 102.336 1.13867 102.333C1.13867 102.33 1.13867 102.327 1.13867 102.325C1.13867 102.322 1.13867 102.319 1.13867 102.317C1.13867 102.314 1.13867 102.311 1.13867 102.309C1.13867 102.306 1.13867 102.303 1.13867 102.301C1.13867 102.298 1.13867 102.295 1.13867 102.292C1.13867 102.29 1.13867 102.287 1.13867 102.284C1.13867 102.282 1.13867 102.279 1.13867 102.276C1.13867 102.273 1.13867 102.271 1.13867 102.268C1.13867 102.265 1.13867 102.263 1.13867 102.26C1.13867 102.257 1.13867 102.254 1.13867 102.252C1.13867 102.249 1.13867 102.246 1.13867 102.244C1.13867 102.241 1.13867 102.238 1.13867 102.235C1.13867 102.233 1.13867 102.23 1.13867 102.227C1.13867 102.225 1.13867 102.222 1.13867 102.219C1.13867 102.216 1.13867 102.214 1.13867 102.211C1.13867 102.208 1.13867 102.205 1.13867 102.203C1.13867 102.2 1.13867 102.197 1.13867 102.194C1.13867 102.192 1.13867 102.189 1.13867 102.186C1.13867 102.183 1.13867 102.181 1.13867 102.178C1.13867 102.175 1.13867 102.172 1.13867 102.17C1.13867 102.167 1.13867 102.164 1.13867 102.161C1.13867 102.159 1.13867 102.156 1.13867 102.153C1.13867 102.15 1.13867 102.148 1.13867 102.145C1.13867 102.142 1.13867 102.139 1.13867 102.137C1.13867 102.134 1.13867 102.131 1.13867 102.128C1.13867 102.126 1.13867 102.123 1.13867 102.12C1.13867 102.117 1.13867 102.115 1.13867 102.112C1.13867 102.109 1.13867 102.106 1.13867 102.103C1.13867 102.101 1.13867 102.098 1.13867 102.095C1.13867 102.092 1.13867 102.09 1.13867 102.087C1.13867 102.084 1.13867 102.081 1.13867 102.078C1.13867 102.076 1.13867 102.073 1.13867 102.07C1.13867 102.067 1.13867 102.065 1.13867 102.062C1.13867 102.059 1.13867 102.056 1.13867 102.053C1.13867 102.051 1.13867 102.048 1.13867 102.045C1.13867 102.042 1.13867 102.039 1.13867 102.037C1.13867 102.034 1.13867 102.031 1.13867 102.028C1.13867 102.025 1.13867 102.023 1.13867 102.02C1.13867 102.017 1.13867 102.014 1.13867 102.011C1.13867 102.009 1.13867 102.006 1.13867 102.003C1.13867 102 1.13867 101.997 1.13867 101.995C1.13867 101.992 1.13867 101.989 1.13867 101.986C1.13867 101.983 1.13867 101.981 1.13867 101.978C1.13867 101.975 1.13867 101.972 1.13867 101.969C1.13867 101.966 1.13867 101.964 1.13867 101.961C1.13867 101.958 1.13867 101.955 1.13867 101.952C1.13867 101.95 1.13867 101.947 1.13867 101.944C1.13867 101.941 1.13867 101.938 1.13867 101.935C1.13867 101.933 1.13867 101.93 1.13867 101.927C1.13867 101.924 1.13867 101.921 1.13867 101.918C1.13867 101.916 1.13867 101.913 1.13867 101.91C1.13867 101.907 1.13867 101.904 1.13867 101.901C1.13867 101.898 1.13867 101.896 1.13867 101.893C1.13867 101.89 1.13867 101.887 1.13867 101.884C1.13867 101.881 1.13867 101.879 1.13867 101.876C1.13867 101.873 1.13867 101.87 1.13867 101.867C1.13867 101.864 1.13867 101.861 1.13867 101.859C1.13867 101.856 1.13867 101.853 1.13867 101.85C1.13867 101.847 1.13867 101.844 1.13867 101.841C1.13867 101.839 1.13867 101.836 1.13867 101.833C1.13867 101.83 1.13867 101.827 1.13867 101.824C1.13867 101.821 1.13867 101.818 1.13867 101.816C1.13867 101.813 1.13867 101.81 1.13867 101.807C1.13867 101.804 1.13867 101.801 1.13867 101.798C1.13867 101.795 1.13867 101.793 1.13867 101.79C1.13867 101.787 1.13867 101.784 1.13867 101.781C1.13867 101.778 1.13867 101.775 1.13867 101.772C1.13867 101.77 1.13867 101.767 1.13867 101.764C1.13867 101.761 1.13867 101.758 1.13867 101.755C1.13867 101.752 1.13867 101.749 1.13867 101.746C1.13867 101.743 1.13867 101.741 1.13867 101.738C1.13867 101.735 1.13867 101.732 1.13867 101.729C1.13867 101.726 1.13867 101.723 1.13867 101.72C1.13867 101.717 1.13867 101.714 1.13867 101.712C1.13867 101.709 1.13867 101.706 1.13867 101.703C1.13867 101.7 1.13867 101.697 1.13867 101.694C1.13867 101.691 1.13867 101.688 1.13867 101.685C1.13867 101.682 1.13867 101.679 1.13867 101.677C1.13867 101.674 1.13867 101.671 1.13867 101.668C1.13867 101.665 1.13867 101.662 1.13867 101.659C1.13867 101.656 1.13867 101.653 1.13867 101.65C1.13867 101.647 1.13867 101.644 1.13867 101.641C1.13867 101.639 1.13867 101.636 1.13867 101.633C1.13867 101.63 1.13867 101.627 1.13867 101.624C1.13867 101.621 1.13867 101.618 1.13867 101.615C1.13867 101.612 1.13867 101.609 1.13867 101.606C1.13867 101.603 1.13867 101.6 1.13867 101.597C1.13867 101.594 1.13867 101.591 1.13867 101.589C1.13867 101.586 1.13867 101.583 1.13867 101.58C1.13867 101.577 1.13867 101.574 1.13867 101.571C1.13867 101.568 1.13867 101.565 1.13867 101.562C1.13867 101.559 1.13867 101.556 1.13867 101.553C1.13867 101.55 1.13867 101.547 1.13867 101.544C1.13867 101.541 1.13867 101.538 1.13867 101.535C1.13867 101.532 1.13867 101.529 1.13867 101.526C1.13867 101.523 1.13867 101.52 1.13867 101.517C1.13867 101.514 1.13867 101.512 1.13867 101.509C1.13867 101.506 1.13867 101.503 1.13867 101.5C1.13867 101.497 1.13867 101.494 1.13867 101.491C1.13867 101.488 1.13867 101.485 1.13867 101.482C1.13867 101.479 1.13867 101.476 1.13867 101.473C1.13867 101.47 1.13867 101.467 1.13867 101.464C1.13867 101.461 1.13867 101.458 1.13867 101.455C1.13867 101.452 1.13867 101.449 1.13867 101.446C1.13867 101.443 1.13867 101.44 1.13867 101.437C1.13867 101.434 1.13867 101.431 1.13867 101.428C1.13867 101.425 1.13867 101.422 1.13867 101.419C1.13867 101.416 1.13867 101.413 1.13867 101.41C1.13867 101.407 1.13867 101.404 1.13867 101.401C1.13867 101.398 1.13867 101.395 1.13867 101.392C1.13867 101.389 1.13867 101.386 1.13867 101.383C1.13867 101.38 1.13867 101.377 1.13867 101.374C1.13867 101.371 1.13867 101.368 1.13867 101.365C1.13867 101.362 1.13867 101.358 1.13867 101.355H-0.861328C-0.861328 101.358 -0.861328 101.362 -0.861328 101.365C-0.861328 101.368 -0.861328 101.371 -0.861328 101.374C-0.861328 101.377 -0.861328 101.38 -0.861328 101.383C-0.861328 101.386 -0.861328 101.389 -0.861328 101.392C-0.861328 101.395 -0.861328 101.398 -0.861328 101.401C-0.861328 101.404 -0.861328 101.407 -0.861328 101.41C-0.861328 101.413 -0.861328 101.416 -0.861328 101.419C-0.861328 101.422 -0.861328 101.425 -0.861328 101.428C-0.861328 101.431 -0.861328 101.434 -0.861328 101.437C-0.861328 101.44 -0.861328 101.443 -0.861328 101.446C-0.861328 101.449 -0.861328 101.452 -0.861328 101.455C-0.861328 101.458 -0.861328 101.461 -0.861328 101.464C-0.861328 101.467 -0.861328 101.47 -0.861328 101.473C-0.861328 101.476 -0.861328 101.479 -0.861328 101.482C-0.861328 101.485 -0.861328 101.488 -0.861328 101.491C-0.861328 101.494 -0.861328 101.497 -0.861328 101.5C-0.861328 101.503 -0.861328 101.506 -0.861328 101.509C-0.861328 101.512 -0.861328 101.514 -0.861328 101.517C-0.861328 101.52 -0.861328 101.523 -0.861328 101.526C-0.861328 101.529 -0.861328 101.532 -0.861328 101.535C-0.861328 101.538 -0.861328 101.541 -0.861328 101.544C-0.861328 101.547 -0.861328 101.55 -0.861328 101.553C-0.861328 101.556 -0.861328 101.559 -0.861328 101.562C-0.861328 101.565 -0.861328 101.568 -0.861328 101.571C-0.861328 101.574 -0.861328 101.577 -0.861328 101.58C-0.861328 101.583 -0.861328 101.586 -0.861328 101.589C-0.861328 101.591 -0.861328 101.594 -0.861328 101.597C-0.861328 101.6 -0.861328 101.603 -0.861328 101.606C-0.861328 101.609 -0.861328 101.612 -0.861328 101.615C-0.861328 101.618 -0.861328 101.621 -0.861328 101.624C-0.861328 101.627 -0.861328 101.63 -0.861328 101.633C-0.861328 101.636 -0.861328 101.639 -0.861328 101.641C-0.861328 101.644 -0.861328 101.647 -0.861328 101.65C-0.861328 101.653 -0.861328 101.656 -0.861328 101.659C-0.861328 101.662 -0.861328 101.665 -0.861328 101.668C-0.861328 101.671 -0.861328 101.674 -0.861328 101.677C-0.861328 101.679 -0.861328 101.682 -0.861328 101.685C-0.861328 101.688 -0.861328 101.691 -0.861328 101.694C-0.861328 101.697 -0.861328 101.7 -0.861328 101.703C-0.861328 101.706 -0.861328 101.709 -0.861328 101.712C-0.861328 101.714 -0.861328 101.717 -0.861328 101.72C-0.861328 101.723 -0.861328 101.726 -0.861328 101.729C-0.861328 101.732 -0.861328 101.735 -0.861328 101.738C-0.861328 101.741 -0.861328 101.743 -0.861328 101.746C-0.861328 101.749 -0.861328 101.752 -0.861328 101.755C-0.861328 101.758 -0.861328 101.761 -0.861328 101.764C-0.861328 101.767 -0.861328 101.77 -0.861328 101.772C-0.861328 101.775 -0.861328 101.778 -0.861328 101.781C-0.861328 101.784 -0.861328 101.787 -0.861328 101.79C-0.861328 101.793 -0.861328 101.795 -0.861328 101.798C-0.861328 101.801 -0.861328 101.804 -0.861328 101.807C-0.861328 101.81 -0.861328 101.813 -0.861328 101.816C-0.861328 101.818 -0.861328 101.821 -0.861328 101.824C-0.861328 101.827 -0.861328 101.83 -0.861328 101.833C-0.861328 101.836 -0.861328 101.839 -0.861328 101.841C-0.861328 101.844 -0.861328 101.847 -0.861328 101.85C-0.861328 101.853 -0.861328 101.856 -0.861328 101.859C-0.861328 101.861 -0.861328 101.864 -0.861328 101.867C-0.861328 101.87 -0.861328 101.873 -0.861328 101.876C-0.861328 101.879 -0.861328 101.881 -0.861328 101.884C-0.861328 101.887 -0.861328 101.89 -0.861328 101.893C-0.861328 101.896 -0.861328 101.898 -0.861328 101.901C-0.861328 101.904 -0.861328 101.907 -0.861328 101.91C-0.861328 101.913 -0.861328 101.916 -0.861328 101.918C-0.861328 101.921 -0.861328 101.924 -0.861328 101.927C-0.861328 101.93 -0.861328 101.933 -0.861328 101.935C-0.861328 101.938 -0.861328 101.941 -0.861328 101.944C-0.861328 101.947 -0.861328 101.95 -0.861328 101.952C-0.861328 101.955 -0.861328 101.958 -0.861328 101.961C-0.861328 101.964 -0.861328 101.966 -0.861328 101.969C-0.861328 101.972 -0.861328 101.975 -0.861328 101.978C-0.861328 101.981 -0.861328 101.983 -0.861328 101.986C-0.861328 101.989 -0.861328 101.992 -0.861328 101.995C-0.861328 101.997 -0.861328 102 -0.861328 102.003C-0.861328 102.006 -0.861328 102.009 -0.861328 102.011C-0.861328 102.014 -0.861328 102.017 -0.861328 102.02C-0.861328 102.023 -0.861328 102.025 -0.861328 102.028C-0.861328 102.031 -0.861328 102.034 -0.861328 102.037C-0.861328 102.039 -0.861328 102.042 -0.861328 102.045C-0.861328 102.048 -0.861328 102.051 -0.861328 102.053C-0.861328 102.056 -0.861328 102.059 -0.861328 102.062C-0.861328 102.065 -0.861328 102.067 -0.861328 102.07C-0.861328 102.073 -0.861328 102.076 -0.861328 102.078C-0.861328 102.081 -0.861328 102.084 -0.861328 102.087C-0.861328 102.09 -0.861328 102.092 -0.861328 102.095C-0.861328 102.098 -0.861328 102.101 -0.861328 102.103C-0.861328 102.106 -0.861328 102.109 -0.861328 102.112C-0.861328 102.115 -0.861328 102.117 -0.861328 102.12C-0.861328 102.123 -0.861328 102.126 -0.861328 102.128C-0.861328 102.131 -0.861328 102.134 -0.861328 102.137C-0.861328 102.139 -0.861328 102.142 -0.861328 102.145C-0.861328 102.148 -0.861328 102.15 -0.861328 102.153C-0.861328 102.156 -0.861328 102.159 -0.861328 102.161C-0.861328 102.164 -0.861328 102.167 -0.861328 102.17C-0.861328 102.172 -0.861328 102.175 -0.861328 102.178C-0.861328 102.181 -0.861328 102.183 -0.861328 102.186C-0.861328 102.189 -0.861328 102.192 -0.861328 102.194C-0.861328 102.197 -0.861328 102.2 -0.861328 102.203C-0.861328 102.205 -0.861328 102.208 -0.861328 102.211C-0.861328 102.214 -0.861328 102.216 -0.861328 102.219C-0.861328 102.222 -0.861328 102.225 -0.861328 102.227C-0.861328 102.23 -0.861328 102.233 -0.861328 102.235C-0.861328 102.238 -0.861328 102.241 -0.861328 102.244C-0.861328 102.246 -0.861328 102.249 -0.861328 102.252C-0.861328 102.254 -0.861328 102.257 -0.861328 102.26C-0.861328 102.263 -0.861328 102.265 -0.861328 102.268C-0.861328 102.271 -0.861328 102.273 -0.861328 102.276C-0.861328 102.279 -0.861328 102.282 -0.861328 102.284C-0.861328 102.287 -0.861328 102.29 -0.861328 102.292C-0.861328 102.295 -0.861328 102.298 -0.861328 102.301C-0.861328 102.303 -0.861328 102.306 -0.861328 102.309C-0.861328 102.311 -0.861328 102.314 -0.861328 102.317C-0.861328 102.319 -0.861328 102.322 -0.861328 102.325C-0.861328 102.327 -0.861328 102.33 -0.861328 102.333C-0.861328 102.336 -0.861328 102.338 -0.861328 102.341C-0.861328 102.344 -0.861328 102.346 -0.861328 102.349C-0.861328 102.352 -0.861328 102.354 -0.861328 102.357C-0.861328 102.36 -0.861328 102.362 -0.861328 102.365C-0.861328 102.368 -0.861328 102.37 -0.861328 102.373C-0.861328 102.376 -0.861328 102.378 -0.861328 102.381C-0.861328 102.384 -0.861328 102.386 -0.861328 102.389C-0.861328 102.392 -0.861328 102.394 -0.861328 102.397C-0.861328 102.4 -0.861328 102.402 -0.861328 102.405C-0.861328 102.408 -0.861328 102.41 -0.861328 102.413C-0.861328 102.416 -0.861328 102.418 -0.861328 102.421C-0.861328 102.424 -0.861328 102.426 -0.861328 102.429C-0.861328 102.432 -0.861328 102.434 -0.861328 102.437C-0.861328 102.44 -0.861328 102.442 -0.861328 102.445C-0.861328 102.448 -0.861328 102.45 -0.861328 102.453C-0.861328 102.456 -0.861328 102.458 -0.861328 102.461C-0.861328 102.463 -0.861328 102.466 -0.861328 102.469C-0.861328 102.471 -0.861328 102.474 -0.861328 102.477C-0.861328 102.479 -0.861328 102.482 -0.861328 102.485C-0.861328 102.487 -0.861328 102.49 -0.861328 102.492C-0.861328 102.495 -0.861328 102.498 -0.861328 102.5C-0.861328 102.503 -0.861328 102.506 -0.861328 102.508C-0.861328 102.511 -0.861328 102.513 -0.861328 102.516C-0.861328 102.519 -0.861328 102.521 -0.861328 102.524C-0.861328 102.527 -0.861328 102.529 -0.861328 102.532C-0.861328 102.534 -0.861328 102.537 -0.861328 102.54C-0.861328 102.542 -0.861328 102.545 -0.861328 102.547C-0.861328 102.55 -0.861328 102.553 -0.861328 102.555C-0.861328 102.558 -0.861328 102.561 -0.861328 102.563C-0.861328 102.566 -0.861328 102.568 -0.861328 102.571C-0.861328 102.574 -0.861328 102.576 -0.861328 102.579C-0.861328 102.581 -0.861328 102.584 -0.861328 102.587C-0.861328 102.589 -0.861328 102.592 -0.861328 102.594C-0.861328 102.597 -0.861328 102.599 -0.861328 102.602C-0.861328 102.605 -0.861328 102.607 -0.861328 102.61C-0.861328 102.612 -0.861328 102.615 -0.861328 102.618C-0.861328 102.62 -0.861328 102.623 -0.861328 102.625C-0.861328 102.628 -0.861328 102.63 -0.861328 102.633C-0.861328 102.636 -0.861328 102.638 -0.861328 102.641C-0.861328 102.643 -0.861328 102.646 -0.861328 102.648C-0.861328 102.651 -0.861328 102.654 -0.861328 102.656C-0.861328 102.659 -0.861328 102.661 -0.861328 102.664C-0.861328 102.666 -0.861328 102.669 -0.861328 102.672C-0.861328 102.674 -0.861328 102.677 -0.861328 102.679C-0.861328 102.682 -0.861328 102.684 -0.861328 102.687C-0.861328 102.69 -0.861328 102.692 -0.861328 102.695C-0.861328 102.697 -0.861328 102.7 -0.861328 102.702C-0.861328 102.705 -0.861328 102.707 -0.861328 102.71C-0.861328 102.712 -0.861328 102.715 -0.861328 102.718C-0.861328 102.72 -0.861328 102.723 -0.861328 102.725C-0.861328 102.728 -0.861328 102.73 -0.861328 102.733C-0.861328 102.735 -0.861328 102.738 -0.861328 102.74C-0.861328 102.743 -0.861328 102.745 -0.861328 102.748C-0.861328 102.751 -0.861328 102.753 -0.861328 102.756C-0.861328 102.758 -0.861328 102.761 -0.861328 102.763C-0.861328 102.766 -0.861328 102.768 -0.861328 102.771C-0.861328 102.773 -0.861328 102.776 -0.861328 102.778C-0.861328 102.781 -0.861328 102.783 -0.861328 102.786C-0.861328 102.788 -0.861328 102.791 -0.861328 102.793C-0.861328 102.796 -0.861328 102.798 -0.861328 102.801C-0.861328 102.804 -0.861328 102.806 -0.861328 102.809C-0.861328 102.811 -0.861328 102.814 -0.861328 102.816C-0.861328 102.819 -0.861328 102.821 -0.861328 102.824C-0.861328 102.826 -0.861328 102.829 -0.861328 102.831C-0.861328 102.834 -0.861328 102.836 -0.861328 102.839C-0.861328 102.841 -0.861328 102.844 -0.861328 102.846C-0.861328 102.849 -0.861328 102.851 -0.861328 102.854C-0.861328 102.856 -0.861328 102.859 -0.861328 102.861C-0.861328 102.863 -0.861328 102.866 -0.861328 102.868C-0.861328 102.871 -0.861328 102.873 -0.861328 102.876C-0.861328 102.878 -0.861328 102.881 -0.861328 102.883C-0.861328 102.886 -0.861328 102.888 -0.861328 102.891C-0.861328 102.893 -0.861328 102.896 -0.861328 102.898C-0.861328 102.901 -0.861328 102.903 -0.861328 102.906C-0.861328 102.908 -0.861328 102.911 -0.861328 102.913C-0.861328 102.916 -0.861328 102.918 -0.861328 102.92C-0.861328 102.923 -0.861328 102.925 -0.861328 102.928C-0.861328 102.93 -0.861328 102.933 -0.861328 102.935C-0.861328 102.938 -0.861328 102.94 -0.861328 102.943C-0.861328 102.945 -0.861328 102.947 -0.861328 102.95C-0.861328 102.952 -0.861328 102.955 -0.861328 102.957C-0.861328 102.96 -0.861328 102.962 -0.861328 102.965C-0.861328 102.967 -0.861328 102.97 -0.861328 102.972C-0.861328 102.974 -0.861328 102.977 -0.861328 102.979C-0.861328 102.982 -0.861328 102.984 -0.861328 102.987C-0.861328 102.989 -0.861328 102.992 -0.861328 102.994C-0.861328 102.996 -0.861328 102.999 -0.861328 103.001C-0.861328 103.004 -0.861328 103.006 -0.861328 103.009C-0.861328 103.011 -0.861328 103.013 -0.861328 103.016C-0.861328 103.018 -0.861328 103.021 -0.861328 103.023C-0.861328 103.026 -0.861328 103.028 -0.861328 103.03C-0.861328 103.033 -0.861328 103.035 -0.861328 103.038C-0.861328 103.04 -0.861328 103.042 -0.861328 103.045C-0.861328 103.047 -0.861328 103.05 -0.861328 103.052C-0.861328 103.055 -0.861328 103.057 -0.861328 103.059C-0.861328 103.062 -0.861328 103.064 -0.861328 103.067C-0.861328 103.069 -0.861328 103.071 -0.861328 103.074C-0.861328 103.076 -0.861328 103.079 -0.861328 103.081C-0.861328 103.083 -0.861328 103.086 -0.861328 103.088C-0.861328 103.091 -0.861328 103.093 -0.861328 103.095C-0.861328 103.098 -0.861328 103.1 -0.861328 103.103C-0.861328 103.105 -0.861328 103.107 -0.861328 103.11C-0.861328 103.112 -0.861328 103.114 -0.861328 103.117C-0.861328 103.119 -0.861328 103.122 -0.861328 103.124C-0.861328 103.126 -0.861328 103.129 -0.861328 103.131C-0.861328 103.134 -0.861328 103.136 -0.861328 103.138C-0.861328 103.141 -0.861328 103.143 -0.861328 103.145C-0.861328 103.148 -0.861328 103.15 -0.861328 103.153C-0.861328 103.155 -0.861328 103.157 -0.861328 103.16C-0.861328 103.162 -0.861328 103.164 -0.861328 103.167C-0.861328 103.169 -0.861328 103.171 -0.861328 103.174C-0.861328 103.176 -0.861328 103.179 -0.861328 103.181C-0.861328 103.183 -0.861328 103.186 -0.861328 103.188C-0.861328 103.19 -0.861328 103.193 -0.861328 103.195C-0.861328 103.197 -0.861328 103.2 -0.861328 103.202C-0.861328 103.204 -0.861328 103.207 -0.861328 103.209C-0.861328 103.211 -0.861328 103.214 -0.861328 103.216C-0.861328 103.219 -0.861328 103.221 -0.861328 103.223C-0.861328 103.226 -0.861328 103.228 -0.861328 103.23C-0.861328 103.233 -0.861328 103.235 -0.861328 103.237C-0.861328 103.24 -0.861328 103.242 -0.861328 103.244C-0.861328 103.247 -0.861328 103.249 -0.861328 103.251C-0.861328 103.254 -0.861328 103.256 -0.861328 103.258C-0.861328 103.261 -0.861328 103.263 -0.861328 103.265C-0.861328 103.267 -0.861328 103.27 -0.861328 103.272C-0.861328 103.274 -0.861328 103.277 -0.861328 103.279C-0.861328 103.281 -0.861328 103.284 -0.861328 103.286C-0.861328 103.288 -0.861328 103.291 -0.861328 103.293C-0.861328 103.295 -0.861328 103.298 -0.861328 103.3C-0.861328 103.302 -0.861328 103.305 -0.861328 103.307C-0.861328 103.309 -0.861328 103.311 -0.861328 103.314C-0.861328 103.316 -0.861328 103.318 -0.861328 103.321C-0.861328 103.323 -0.861328 103.325 -0.861328 103.328C-0.861328 103.33 -0.861328 103.332 -0.861328 103.334C-0.861328 103.337 -0.861328 103.339 -0.861328 103.341C-0.861328 103.344 -0.861328 103.346 -0.861328 103.348C-0.861328 103.35 -0.861328 103.353 -0.861328 103.355C-0.861328 103.357 -0.861328 103.36 -0.861328 103.362C-0.861328 103.364 -0.861328 103.366 -0.861328 103.369C-0.861328 103.371 -0.861328 103.373 -0.861328 103.376C-0.861328 103.378 -0.861328 103.38 -0.861328 103.382C-0.861328 103.385 -0.861328 103.387 -0.861328 103.389C-0.861328 103.391 -0.861328 103.394 -0.861328 103.396C-0.861328 103.398 -0.861328 103.4 -0.861328 103.403C-0.861328 103.405 -0.861328 103.407 -0.861328 103.41C-0.861328 103.412 -0.861328 103.414 -0.861328 103.416C-0.861328 103.419 -0.861328 103.421 -0.861328 103.423C-0.861328 103.425 -0.861328 103.428 -0.861328 103.43C-0.861328 103.432 -0.861328 103.434 -0.861328 103.437C-0.861328 103.439 -0.861328 103.441 -0.861328 103.443C-0.861328 103.446 -0.861328 103.448 -0.861328 103.45C-0.861328 103.452 -0.861328 103.455 -0.861328 103.457C-0.861328 103.459 -0.861328 103.461 -0.861328 103.464C-0.861328 103.466 -0.861328 103.468 -0.861328 103.47C-0.861328 103.472 -0.861328 103.475 -0.861328 103.477C-0.861328 103.479 -0.861328 103.481 -0.861328 103.484C-0.861328 103.486 -0.861328 103.488 -0.861328 103.49C-0.861328 103.493 -0.861328 103.495 -0.861328 103.497C-0.861328 103.499 -0.861328 103.501 -0.861328 103.504C-0.861328 103.506 -0.861328 103.508 -0.861328 103.51C-0.861328 103.513 -0.861328 103.515 -0.861328 103.517C-0.861328 103.519 -0.861328 103.521 -0.861328 103.524C-0.861328 103.526 -0.861328 103.528 -0.861328 103.53C-0.861328 103.532 -0.861328 103.535 -0.861328 103.537C-0.861328 103.539 -0.861328 103.541 -0.861328 103.543C-0.861328 103.546 -0.861328 103.548 -0.861328 103.55C-0.861328 103.552 -0.861328 103.554 -0.861328 103.557C-0.861328 103.559 -0.861328 103.561 -0.861328 103.563C-0.861328 103.565 -0.861328 103.568 -0.861328 103.57C-0.861328 103.572 -0.861328 103.574 -0.861328 103.576C-0.861328 103.579 -0.861328 103.581 -0.861328 103.583C-0.861328 103.585 -0.861328 103.587 -0.861328 103.589C-0.861328 103.592 -0.861328 103.594 -0.861328 103.596C-0.861328 103.598 -0.861328 103.6 -0.861328 103.603C-0.861328 103.605 -0.861328 103.607 -0.861328 103.609C-0.861328 103.611 -0.861328 103.613 -0.861328 103.616C-0.861328 103.618 -0.861328 103.62 -0.861328 103.622C-0.861328 103.624 -0.861328 103.626 -0.861328 103.629C-0.861328 103.631 -0.861328 103.633 -0.861328 103.635C-0.861328 103.637 -0.861328 103.639 -0.861328 103.642C-0.861328 103.644 -0.861328 103.646 -0.861328 103.648C-0.861328 103.65 -0.861328 103.652 -0.861328 103.654C-0.861328 103.657 -0.861328 103.659 -0.861328 103.661C-0.861328 103.663 -0.861328 103.665 -0.861328 103.667C-0.861328 103.669 -0.861328 103.672 -0.861328 103.674C-0.861328 103.676 -0.861328 103.678 -0.861328 103.68C-0.861328 103.682 -0.861328 103.684 -0.861328 103.687C-0.861328 103.689 -0.861328 103.691 -0.861328 103.693C-0.861328 103.695 -0.861328 103.697 -0.861328 103.699C-0.861328 103.702 -0.861328 103.704 -0.861328 103.706C-0.861328 103.708 -0.861328 103.71 -0.861328 103.712C-0.861328 103.714 -0.861328 103.716 -0.861328 103.719C-0.861328 103.721 -0.861328 103.723 -0.861328 103.725C-0.861328 103.727 -0.861328 103.729 -0.861328 103.731C-0.861328 103.733 -0.861328 103.735 -0.861328 103.738C-0.861328 103.74 -0.861328 103.742 -0.861328 103.744C-0.861328 103.746 -0.861328 103.748 -0.861328 103.75C-0.861328 103.752 -0.861328 103.754 -0.861328 103.757C-0.861328 103.759 -0.861328 103.761 -0.861328 103.763C-0.861328 103.765 -0.861328 103.767 -0.861328 103.769C-0.861328 103.771 -0.861328 103.773 -0.861328 103.775C-0.861328 103.778 -0.861328 103.78 -0.861328 103.782C-0.861328 103.784 -0.861328 103.786 -0.861328 103.788C-0.861328 103.79 -0.861328 103.792 -0.861328 103.794C-0.861328 103.796 -0.861328 103.798 -0.861328 103.801C-0.861328 103.803 -0.861328 103.805 -0.861328 103.807C-0.861328 103.809 -0.861328 103.811 -0.861328 103.813C-0.861328 103.815 -0.861328 103.817 -0.861328 103.819C-0.861328 103.821 -0.861328 103.823 -0.861328 103.825C-0.861328 103.828 -0.861328 103.83 -0.861328 103.832C-0.861328 103.834 -0.861328 103.836 -0.861328 103.838C-0.861328 103.84 -0.861328 103.842 -0.861328 103.844C-0.861328 103.846 -0.861328 103.848 -0.861328 103.85C-0.861328 103.852 -0.861328 103.854 -0.861328 103.856C-0.861328 103.859 -0.861328 103.861 -0.861328 103.863C-0.861328 103.865 -0.861328 103.867 -0.861328 103.869C-0.861328 103.871 -0.861328 103.873 -0.861328 103.875C-0.861328 103.877 -0.861328 103.879 -0.861328 103.881C-0.861328 103.883 -0.861328 103.885 -0.861328 103.887C-0.861328 103.889 -0.861328 103.891 -0.861328 103.893C-0.861328 103.895 -0.861328 103.897 -0.861328 103.899C-0.861328 103.901 -0.861328 103.903 -0.861328 103.906C-0.861328 103.908 -0.861328 103.91 -0.861328 103.912C-0.861328 103.914 -0.861328 103.916 -0.861328 103.918C-0.861328 103.92 -0.861328 103.922 -0.861328 103.924C-0.861328 103.926 -0.861328 103.928 -0.861328 103.93C-0.861328 103.932 -0.861328 103.934 -0.861328 103.936C-0.861328 103.938 -0.861328 103.94 -0.861328 103.942C-0.861328 103.944 -0.861328 103.946 -0.861328 103.948C-0.861328 103.95 -0.861328 103.952 -0.861328 103.954C-0.861328 103.956 -0.861328 103.958 -0.861328 103.96C-0.861328 103.962 -0.861328 103.964 -0.861328 103.966C-0.861328 103.968 -0.861328 103.97 -0.861328 103.972C-0.861328 103.974 -0.861328 103.976 -0.861328 103.978C-0.861328 103.98 -0.861328 103.982 -0.861328 103.984C-0.861328 103.986 -0.861328 103.988 -0.861328 103.99C-0.861328 103.992 -0.861328 103.994 -0.861328 103.996C-0.861328 103.998 -0.861328 104 -0.861328 104.002C-0.861328 104.004 -0.861328 104.006 -0.861328 104.008C-0.861328 104.01 -0.861328 104.012 -0.861328 104.014C-0.861328 104.016 -0.861328 104.018 -0.861328 104.02C-0.861328 104.022 -0.861328 104.024 -0.861328 104.026C-0.861328 104.028 -0.861328 104.03 -0.861328 104.032C-0.861328 104.034 -0.861328 104.036 -0.861328 104.038C-0.861328 104.04 -0.861328 104.042 -0.861328 104.043C-0.861328 104.045 -0.861328 104.047 -0.861328 104.049C-0.861328 104.051 -0.861328 104.053 -0.861328 104.055C-0.861328 104.057 -0.861328 104.059 -0.861328 104.061C-0.861328 104.063 -0.861328 104.065 -0.861328 104.067C-0.861328 104.069 -0.861328 104.071 -0.861328 104.073C-0.861328 104.075 -0.861328 104.077 -0.861328 104.079C-0.861328 104.081 -0.861328 104.083 -0.861328 104.085C-0.861328 104.086 -0.861328 104.088 -0.861328 104.09C-0.861328 104.092 -0.861328 104.094 -0.861328 104.096C-0.861328 104.098 -0.861328 104.1 -0.861328 104.102C-0.861328 104.104 -0.861328 104.106 -0.861328 104.108C-0.861328 104.11 -0.861328 104.112 -0.861328 104.114C-0.861328 104.116 -0.861328 104.117 -0.861328 104.119C-0.861328 104.121 -0.861328 104.123 -0.861328 104.125C-0.861328 104.127 -0.861328 104.129 -0.861328 104.131C-0.861328 104.133 -0.861328 104.135 -0.861328 104.137C-0.861328 104.139 -0.861328 104.141 -0.861328 104.142C-0.861328 104.144 -0.861328 104.146 -0.861328 104.148C-0.861328 104.15 -0.861328 104.152 -0.861328 104.154C-0.861328 104.156 -0.861328 104.158 -0.861328 104.16C-0.861328 104.162 -0.861328 104.163 -0.861328 104.165C-0.861328 104.167 -0.861328 104.169 -0.861328 104.171C-0.861328 104.173 -0.861328 104.175 -0.861328 104.177C-0.861328 104.179 -0.861328 104.181 -0.861328 104.182C-0.861328 104.184 -0.861328 104.186 -0.861328 104.188C-0.861328 104.19 -0.861328 104.192 -0.861328 104.194C-0.861328 104.196 -0.861328 104.198 -0.861328 104.199C-0.861328 104.201 -0.861328 104.203 -0.861328 104.205C-0.861328 104.207 -0.861328 104.209 -0.861328 104.211C-0.861328 104.213 -0.861328 104.214 -0.861328 104.216C-0.861328 104.218 -0.861328 104.22 -0.861328 104.222C-0.861328 104.224 -0.861328 104.226 -0.861328 104.228C-0.861328 104.229 -0.861328 104.231 -0.861328 104.233C-0.861328 104.235 -0.861328 104.237 -0.861328 104.239C-0.861328 104.241 -0.861328 104.243 -0.861328 104.244C-0.861328 104.246 -0.861328 104.248 -0.861328 104.25C-0.861328 104.252 -0.861328 104.254 -0.861328 104.256C-0.861328 104.257 -0.861328 104.259 -0.861328 104.261C-0.861328 104.263 -0.861328 104.265 -0.861328 104.267C-0.861328 104.269 -0.861328 104.27 -0.861328 104.272C-0.861328 104.274 -0.861328 104.276 -0.861328 104.278C-0.861328 104.28 -0.861328 104.281 -0.861328 104.283C-0.861328 104.285 -0.861328 104.287 -0.861328 104.289C-0.861328 104.291 -0.861328 104.292 -0.861328 104.294C-0.861328 104.296 -0.861328 104.298 -0.861328 104.3C-0.861328 104.302 -0.861328 104.303 -0.861328 104.305C-0.861328 104.307 -0.861328 104.309 -0.861328 104.311C-0.861328 104.313 -0.861328 104.314 -0.861328 104.316C-0.861328 104.318 -0.861328 104.32 -0.861328 104.322C-0.861328 104.324 -0.861328 104.325 -0.861328 104.327C-0.861328 104.329 -0.861328 104.331 -0.861328 104.333C-0.861328 104.334 -0.861328 104.336 -0.861328 104.338C-0.861328 104.34 -0.861328 104.342 -0.861328 104.344C-0.861328 104.345 -0.861328 104.347 -0.861328 104.349C-0.861328 104.351 -0.861328 104.353 -0.861328 104.354C-0.861328 104.356 -0.861328 104.358 -0.861328 104.36C-0.861328 104.362 -0.861328 104.363 -0.861328 104.365C-0.861328 104.367 -0.861328 104.369 -0.861328 104.371C-0.861328 104.372 -0.861328 104.374 -0.861328 104.376C-0.861328 104.378 -0.861328 104.38 -0.861328 104.381C-0.861328 104.383 -0.861328 104.385 -0.861328 104.387C-0.861328 104.388 -0.861328 104.39 -0.861328 104.392C-0.861328 104.394 -0.861328 104.396 -0.861328 104.397C-0.861328 104.399 -0.861328 104.401 -0.861328 104.403C-0.861328 104.404 -0.861328 104.406 -0.861328 104.408C-0.861328 104.41 -0.861328 104.412 -0.861328 104.413C-0.861328 104.415 -0.861328 104.417 -0.861328 104.419C-0.861328 104.42 -0.861328 104.422 -0.861328 104.424C-0.861328 104.426 -0.861328 104.427 -0.861328 104.429C-0.861328 104.431 -0.861328 104.433 -0.861328 104.434C-0.861328 104.436 -0.861328 104.438 -0.861328 104.44C-0.861328 104.442 -0.861328 104.443 -0.861328 104.445C-0.861328 104.447 -0.861328 104.449 -0.861328 104.45C-0.861328 104.452 -0.861328 104.454 -0.861328 104.456C-0.861328 104.457 -0.861328 104.459 -0.861328 104.461C-0.861328 104.462 -0.861328 104.464 -0.861328 104.466C-0.861328 104.468 -0.861328 104.469 -0.861328 104.471C-0.861328 104.473 -0.861328 104.475 -0.861328 104.476C-0.861328 104.478 -0.861328 104.48 -0.861328 104.482C-0.861328 104.483 -0.861328 104.485 -0.861328 104.487C-0.861328 104.489 -0.861328 104.49 -0.861328 104.492C-0.861328 104.494 -0.861328 104.495 -0.861328 104.497C-0.861328 104.499 -0.861328 104.501 -0.861328 104.502C-0.861328 104.504 -0.861328 104.506 -0.861328 104.507C-0.861328 104.509 -0.861328 104.511 -0.861328 104.513C-0.861328 104.514 -0.861328 104.516 -0.861328 104.518C-0.861328 104.519 -0.861328 104.521 -0.861328 104.523C-0.861328 104.525 -0.861328 104.526 -0.861328 104.528C-0.861328 104.53 -0.861328 104.531 -0.861328 104.533C-0.861328 104.535 -0.861328 104.537 -0.861328 104.538C-0.861328 104.54 -0.861328 104.542 -0.861328 104.543C-0.861328 104.545 -0.861328 104.547 -0.861328 104.548C-0.861328 104.55 -0.861328 104.552 -0.861328 104.553C-0.861328 104.555 -0.861328 104.557 -0.861328 104.559C-0.861328 104.56 -0.861328 104.562 -0.861328 104.564C-0.861328 104.565 -0.861328 104.567 -0.861328 104.569C-0.861328 104.57 -0.861328 104.572 -0.861328 104.574C-0.861328 104.575 -0.861328 104.577 -0.861328 104.579C-0.861328 104.58 -0.861328 104.582 -0.861328 104.584C-0.861328 104.585 -0.861328 104.587 -0.861328 104.589C-0.861328 104.59 -0.861328 104.592 -0.861328 104.594C-0.861328 104.595 -0.861328 104.597 -0.861328 104.599C-0.861328 104.6 -0.861328 104.602 -0.861328 104.604C-0.861328 104.605 -0.861328 104.607 -0.861328 104.609C-0.861328 104.61 -0.861328 104.612 -0.861328 104.614C-0.861328 104.615 -0.861328 104.617 -0.861328 104.619C-0.861328 104.62 -0.861328 104.622 -0.861328 104.624C-0.861328 104.625 -0.861328 104.627 -0.861328 104.629C-0.861328 104.63 -0.861328 104.632 -0.861328 104.633C-0.861328 104.635 -0.861328 104.637 -0.861328 104.638C-0.861328 104.64 -0.861328 104.642 -0.861328 104.643C-0.861328 104.645 -0.861328 104.647 -0.861328 104.648C-0.861328 104.65 -0.861328 104.651 -0.861328 104.653C-0.861328 104.655 -0.861328 104.656 -0.861328 104.658C-0.861328 104.66 -0.861328 104.661 -0.861328 104.663C-0.861328 104.665 -0.861328 104.666 -0.861328 104.668C-0.861328 104.669 -0.861328 104.671 -0.861328 104.673C-0.861328 104.674 -0.861328 104.676 -0.861328 104.677C-0.861328 104.679 -0.861328 104.681 -0.861328 104.682C-0.861328 104.684 -0.861328 104.686 -0.861328 104.687C-0.861328 104.689 -0.861328 104.69 -0.861328 104.692C-0.861328 104.694 -0.861328 104.695 -0.861328 104.697C-0.861328 104.698 -0.861328 104.7 -0.861328 104.702C-0.861328 104.703 -0.861328 104.705 -0.861328 104.706C-0.861328 104.708 -0.861328 104.71 -0.861328 104.711C-0.861328 104.713 -0.861328 104.714 -0.861328 104.716C-0.861328 104.718 -0.861328 104.719 -0.861328 104.721C-0.861328 104.722 -0.861328 104.724 -0.861328 104.726C-0.861328 104.727 -0.861328 104.729 -0.861328 104.73C-0.861328 104.732 -0.861328 104.733 -0.861328 104.735C-0.861328 104.737 -0.861328 104.738 -0.861328 104.74C-0.861328 104.741 -0.861328 104.743 -0.861328 104.745C-0.861328 104.746 -0.861328 104.748 -0.861328 104.749C-0.861328 104.751 -0.861328 104.752 -0.861328 104.754C-0.861328 104.756 -0.861328 104.757 -0.861328 104.759C-0.861328 104.76 -0.861328 104.762 -0.861328 104.763C-0.861328 104.765 -0.861328 104.766 -0.861328 104.768C-0.861328 104.77 -0.861328 104.771 -0.861328 104.773C-0.861328 104.774 -0.861328 104.776 -0.861328 104.777C-0.861328 104.779 -0.861328 104.78 -0.861328 104.782C-0.861328 104.784 -0.861328 104.785 -0.861328 104.787C-0.861328 104.788 -0.861328 104.79 -0.861328 104.791C-0.861328 104.793 -0.861328 104.794 -0.861328 104.796C-0.861328 104.798 -0.861328 104.799 -0.861328 104.801C-0.861328 104.802 -0.861328 104.804 -0.861328 104.805C-0.861328 104.807 -0.861328 104.808 -0.861328 104.81C-0.861328 104.811 -0.861328 104.813 -0.861328 104.814C-0.861328 104.816 -0.861328 104.817 -0.861328 104.819C-0.861328 104.821 -0.861328 104.822 -0.861328 104.824C-0.861328 104.825 -0.861328 104.827 -0.861328 104.828C-0.861328 104.83 -0.861328 104.831 -0.861328 104.833C-0.861328 104.834 -0.861328 104.836 -0.861328 104.837C-0.861328 104.839 -0.861328 104.84 -0.861328 104.842H1.13867ZM1.13867 101.355C1.13867 95.1322 2.40929 89.4459 4.93818 84.2805L3.1419 83.4011C0.468966 88.8607 -0.861328 94.8509 -0.861328 101.355H1.13867ZM4.93447 84.288C7.521 79.115 11.5262 74.1226 16.9858 69.3181L15.6646 67.8167C10.0565 72.7518 5.87157 77.9417 3.14561 83.3936L4.93447 84.288ZM16.9822 69.3213C20.7768 66.0146 26.8472 62.0149 35.241 57.321L34.2649 55.5754C25.8357 60.2891 19.621 64.3689 15.6682 67.8135L16.9822 69.3213ZM35.2309 57.3266C38.9975 55.2771 41.7642 53.6852 43.5128 52.5571L42.4286 50.8765C40.7462 51.9619 38.0344 53.5243 34.275 55.5699L35.2309 57.3266ZM43.4983 52.5663C48.7932 49.2779 52.5313 46.1461 54.5862 43.1518L52.9372 42.0201C51.1184 44.6703 47.6625 47.6258 42.4431 50.8673L43.4983 52.5663ZM54.5839 43.1551C56.7058 40.0902 57.75 36.4825 57.75 32.376H55.75C55.75 36.1275 54.802 39.3265 52.9395 42.0167L54.5839 43.1551ZM57.75 32.376C57.75 27.2112 55.7646 23.0167 51.8089 19.8876L50.5681 21.4562C54.0277 24.1929 55.75 27.8012 55.75 32.376H57.75ZM51.8217 19.8979C47.9429 16.7243 42.799 15.1895 36.4961 15.1895V17.1895C42.4783 17.1895 47.1294 18.6429 50.5552 21.4458L51.8217 19.8979ZM36.4961 15.1895C31.3323 15.1895 26.9632 16.2107 23.4474 18.3202L24.4764 20.0352C27.6012 18.1603 31.5882 17.1895 36.4961 17.1895V15.1895ZM23.4474 18.3202C19.9288 20.4314 17.3561 23.512 15.7306 27.5175L17.5838 28.2696C19.0574 24.6384 21.3544 21.9084 24.4764 20.0352L23.4474 18.3202ZM16.8742 28.8697C17.8608 28.6505 18.7906 28.4591 19.6638 28.2954L19.2952 26.3296C18.3976 26.4979 17.4458 26.6939 16.4403 26.9174L16.8742 28.8697ZM19.6533 28.2973C20.5593 28.1374 21.3001 28.0635 21.8867 28.0635V26.0635C21.1452 26.0635 20.2812 26.1556 19.3057 26.3277L19.6533 28.2973ZM21.8867 28.0635C25.2086 28.0635 27.8221 29.0675 29.8214 31.0168L31.2176 29.5848C28.7899 27.2177 25.6481 26.0635 21.8867 26.0635V28.0635ZM29.8214 31.0168C31.8198 32.9652 32.8398 35.4906 32.8398 38.6846H34.8398C34.8398 35.0165 33.6463 31.9528 31.2176 29.5848L29.8214 31.0168ZM32.8398 38.6846C32.8398 42.3173 31.4479 45.4011 28.6017 47.9886L29.9471 49.4685C33.1881 46.5221 34.8398 42.91 34.8398 38.6846H32.8398ZM28.6024 47.988C25.8166 50.5158 22.3561 51.7959 18.1514 51.7959V53.7959C22.8008 53.7959 26.7556 52.3644 29.9464 49.4691L28.6024 47.988ZM18.1514 51.7959C12.8948 51.7959 8.79995 50.1854 5.75492 47.0372L4.31734 48.4277C7.80226 52.0307 12.4509 53.7959 18.1514 53.7959V51.7959ZM5.75492 47.0372C2.7092 43.8882 1.13867 39.5938 1.13867 34.0361H-0.861328C-0.861328 39.9889 0.833122 44.8253 4.31734 48.4277L5.75492 47.0372ZM1.13867 34.0361C1.13867 24.8654 5.1414 17.2058 13.2787 11.0084L12.067 9.41734C3.49207 15.9479 -0.861328 24.1704 -0.861328 34.0361H1.13867ZM13.2795 11.0078C21.482 4.74804 31.8805 1.58398 44.5479 1.58398V-0.416016C31.5381 -0.416016 20.6866 2.8392 12.0662 9.41794L13.2795 11.0078ZM44.5479 1.58398C58.069 1.58398 68.7336 4.67633 76.6435 10.7567L77.8624 9.17104C69.5027 2.7449 58.364 -0.416016 44.5479 -0.416016V1.58398ZM76.6461 10.7587C84.5856 16.8206 88.5381 24.8538 88.5381 34.9492H90.5381C90.5381 24.2374 86.3005 15.6136 77.8598 9.16905L76.6461 10.7587ZM88.5381 34.9492C88.5381 42.5021 86.0034 48.9517 80.9239 54.352L82.3808 55.7223C87.8156 49.9441 90.5381 43.0018 90.5381 34.9492H88.5381ZM80.9273 54.3484C75.8304 59.7136 68.2331 63.9313 58.0436 66.9444L58.6107 68.8623C69.0071 65.7881 76.96 61.4284 82.3773 55.7259L80.9273 54.3484ZM58.0331 66.9475C56.6078 67.3861 54.5987 67.9642 52.001 68.6827L52.5342 70.6103C55.1383 69.89 57.1689 69.306 58.6212 68.8591L58.0331 66.9475ZM51.9866 68.6868C43.536 71.1608 36.5773 73.8397 31.1297 76.732C25.6908 79.6197 21.6971 82.752 19.2482 86.1629L20.8729 87.3293C23.0725 84.2656 26.7708 81.3107 32.0676 78.4985C37.3556 75.6909 44.1763 73.0573 52.5485 70.6062L51.9866 68.6868ZM20.5414 87.6229C23.9048 85.7785 27.285 84.4278 30.6827 83.5649L30.1904 81.6265C26.6154 82.5344 23.0783 83.9507 19.5797 85.8693L20.5414 87.6229ZM30.6932 83.5622C34.1477 82.6446 37.7412 82.1846 41.4766 82.1846V80.1846C37.5752 80.1846 33.8087 80.6653 30.1798 81.6292L30.6932 83.5622ZM41.4766 82.1846C45.5307 82.1846 50.3792 82.807 56.034 84.0697L56.4699 82.1178C50.725 80.8349 45.7232 80.1846 41.4766 80.1846V82.1846ZM56.0431 84.0717C61.7133 85.2828 65.5048 85.9199 67.292 85.9199V83.9199C65.7588 83.9199 62.1904 83.3396 56.4608 82.1158L56.0431 84.0717ZM67.292 85.9199C70.9976 85.9199 73.8561 84.7302 75.5915 82.1591L73.9338 81.0401C72.681 82.8961 70.5591 83.9199 67.292 83.9199V85.9199ZM75.5915 82.1591C77.2613 79.6853 78.0039 75.7194 78.0039 70.4766H76.0039C76.0039 75.6374 75.2523 79.0868 73.9338 81.0401L75.5915 82.1591ZM77.0039 71.4766H91.9453V69.4766H77.0039V71.4766ZM90.9479 70.5478C91.0013 71.2958 91.0283 72.1019 91.0283 72.9668H93.0283C93.0283 72.0608 93 71.2068 92.9428 70.4053L90.9479 70.5478ZM91.0305 73.0333C91.0836 73.829 91.1113 75.047 91.1113 76.7021H93.1113C93.1113 75.037 93.0837 73.7648 93.0261 72.9003L91.0305 73.0333ZM91.1113 76.7021C91.1113 87.9837 88.643 96.1 83.9041 101.26L85.3772 102.613C90.5992 96.9267 93.1113 88.2201 93.1113 76.7021H91.1113ZM83.9041 101.26C79.1815 106.403 71.7809 109.071 61.4814 109.071V111.071C72.1 111.071 80.1388 108.317 85.3772 102.613L83.9041 101.26ZM61.4814 109.071C56.6294 109.071 50.5134 107.6 43.099 104.58L42.3444 106.432C49.8713 109.498 56.2619 111.071 61.4814 111.071V109.071ZM43.1003 104.58C41.8826 104.082 40.9941 103.721 40.4368 103.498L39.694 105.355C40.2435 105.575 41.1259 105.933 42.343 106.431L43.1003 104.58ZM40.418 103.491C36.5846 102.046 33.4469 101.008 31.0164 100.387L30.5207 102.324C32.8493 102.92 35.9096 103.929 39.7128 105.363L40.418 103.491ZM31.0433 100.394C28.6665 99.7149 26.5768 99.3594 24.792 99.3594V101.359C26.3275 101.359 28.2222 101.668 30.4938 102.317L31.0433 100.394ZM24.792 99.3594C22.3028 99.3594 20.0889 99.9543 18.1903 101.179L19.2745 102.86C20.8069 101.871 22.6327 101.359 24.792 101.359V99.3594ZM18.1777 101.187C16.3304 102.419 14.8925 104.242 13.8361 106.59L15.66 107.41C16.5957 105.331 17.8141 103.834 19.2871 102.852L18.1777 101.187ZM14.748 106H0.387695V108H14.748V106Z" fill="url(#paint0_linear_0_119)"/>
<defs>
<linearGradient id="paint0_linear_0_119" x1="40.3333" y1="-7.00001" x2="111.131" y2="13.9241" gradientUnits="userSpaceOnUse">
<stop stop-color="#07A568"/>
<stop offset="1" stop-color="#07A568" stop-opacity="0"/>
</linearGradient>
</defs>
</svg>
