<svg width="94" height="111" viewBox="0 0 94 111" fill="none" xmlns="http://www.w3.org/2000/svg">
<path d="M37.5752 59.9346H36.5752V60.9346H37.5752V59.9346ZM37.5752 45.6572L37.5276 44.6584L36.5752 44.7037V45.6572H37.5752ZM53.0977 41.4238L53.6913 42.2286L53.6935 42.2269L53.0977 41.4238ZM52.6826 18.8457L52.0637 19.6312L52.0703 19.6364L52.0769 19.6414L52.6826 18.8457ZM28.4443 15.9404L28.1224 14.9936L28.1166 14.9957L28.4443 15.9404ZM21.0566 20.3398L20.3877 19.5965L18.4507 21.3398H21.0566V20.3398ZM31.1006 23.3281L30.4128 24.0541L30.4223 24.0629L31.1006 23.3281ZM30.3535 41.0918L31.0292 41.8289L30.3535 41.0918ZM8.19043 40.5938L7.47636 41.2938L7.48329 41.3009L7.49036 41.3078L8.19043 40.5938ZM15.0801 8.30371L14.5099 7.48218L14.507 7.48419L15.0801 8.30371ZM77.668 7.88867L77.1275 8.73006L77.1319 8.73284L77.668 7.88867ZM83.2295 43.333L82.5077 42.6409L82.5075 42.6411L83.2295 43.333ZM67.292 51.0527L67.1237 50.067L67.0466 52.0221L67.292 51.0527ZM86.7988 60.9307L86.0827 61.6287L86.0917 61.6378L86.7988 60.9307ZM80.4072 101.854L80.9556 102.69L80.9569 102.689L80.4072 101.854ZM12.0088 102.601L11.4471 103.428L11.4513 103.431L12.0088 102.601ZM5.45117 68.4844L4.72676 67.795L4.72647 67.7953L5.45117 68.4844ZM29.5234 86.6631L30.1961 87.403L30.1969 87.4023L29.5234 86.6631ZM19.4795 89.9834V88.9834H16.616L18.857 90.766L19.4795 89.9834ZM27.6973 94.2998L27.402 95.2552L27.4099 95.2577L27.4179 95.26L27.6973 94.2998ZM54.8408 90.6475L55.4916 91.4067L55.4978 91.4014L54.8408 90.6475ZM55.0068 63.9189L54.4244 64.7319L54.4313 64.7368L54.4383 64.7416L55.0068 63.9189ZM38.5752 59.9346V45.6572H36.5752V59.9346H38.5752ZM37.6228 46.6561C44.6749 46.3203 50.0829 44.8905 53.6913 42.2286L52.504 40.6191C49.3611 42.9376 44.4208 44.3301 37.5276 44.6584L37.6228 46.6561ZM53.6935 42.2269C57.4104 39.4692 59.2441 35.5009 59.2441 30.4668H57.2441C57.2441 34.9509 55.6469 38.2873 52.5018 40.6207L53.6935 42.2269ZM59.2441 30.4668C59.2441 25.2501 57.2605 21.0736 53.2883 18.05L52.0769 19.6414C55.5201 22.2623 57.2441 25.8332 57.2441 30.4668H59.2441ZM53.3015 18.0602C49.4191 15.0014 44.1948 13.5293 37.7412 13.5293V15.5293C43.9048 15.5293 48.6414 16.9348 52.0637 19.6312L53.3015 18.0602ZM37.7412 13.5293C34.2193 13.5293 31.0093 14.0121 28.1224 14.9937L28.7662 16.8872C31.4132 15.9872 34.4011 15.5293 37.7412 15.5293V13.5293ZM28.1166 14.9957C25.2742 15.9818 22.6966 17.5185 20.3877 19.5965L21.7256 21.0831C23.8438 19.1768 26.1913 17.7806 28.7721 16.8852L28.1166 14.9957ZM21.0566 21.3398H22.5508V19.3398H21.0566V21.3398ZM22.5508 21.3398C25.9569 21.3398 28.538 22.278 30.4128 24.0541L31.7883 22.6022C29.4574 20.3939 26.3387 19.3398 22.5508 19.3398V21.3398ZM30.4223 24.0629C32.344 25.8368 33.3379 28.2375 33.3379 31.3799H35.3379C35.3379 27.7709 34.1735 24.8038 31.7789 22.5933L30.4223 24.0629ZM33.3379 31.3799C33.3379 35.1769 32.1012 38.1332 29.6778 40.3546L31.0292 41.8289C33.9183 39.1806 35.3379 35.6623 35.3379 31.3799H33.3379ZM29.6778 40.3546C27.2459 42.5839 23.9654 43.7441 19.7285 43.7441V45.7441C24.3458 45.7441 28.1487 44.4695 31.0292 41.8289L29.6778 40.3546ZM19.7285 43.7441C15.0562 43.7441 11.4845 42.4228 8.8905 39.8797L7.49036 41.3078C10.5409 44.2986 14.6612 45.7441 19.7285 45.7441V43.7441ZM8.9045 39.8937C6.36346 37.3018 5.04004 33.7039 5.04004 28.9727H3.04004C3.04004 34.0917 4.48355 38.2412 7.47636 41.2938L8.9045 39.8937ZM5.04004 28.9727C5.04004 20.6817 8.54786 14.0916 15.6531 9.12323L14.507 7.48419C6.89225 12.8088 3.04004 19.998 3.04004 28.9727H5.04004ZM15.6502 9.12524C22.843 4.13329 32.6636 1.58398 45.2119 1.58398V-0.416016C32.4151 -0.416016 22.1479 2.18117 14.5099 7.48218L15.6502 9.12524ZM45.2119 1.58398C59.175 1.58398 69.7741 4.00668 77.1275 8.73005L78.2084 7.04729C70.3991 2.03108 59.3608 -0.416016 45.2119 -0.416016V1.58398ZM77.1319 8.73284C84.4272 13.3656 88.04 19.9107 88.04 28.4746H90.04C90.04 19.2195 86.0715 12.0406 78.204 7.0445L77.1319 8.73284ZM88.04 28.4746C88.04 34.0963 86.1936 38.797 82.5077 42.6409L83.9513 44.0251C88.0128 39.7896 90.04 34.5847 90.04 28.4746H88.04ZM82.5075 42.6411C78.8712 46.4355 73.7728 48.9318 67.1237 50.067L67.4603 52.0385C74.4244 50.8495 79.951 48.1993 83.9515 44.0249L82.5075 42.6411ZM67.0466 52.0221C75.6911 54.2106 81.998 57.4378 86.0827 61.6286L87.5149 60.2327C83.0776 55.68 76.3799 52.3219 67.5374 50.0833L67.0466 52.0221ZM86.0917 61.6378C90.2049 65.7509 92.2734 70.94 92.2734 77.2832H94.2734C94.2734 70.4558 92.0256 64.7432 87.5059 60.2236L86.0917 61.6378ZM92.2734 77.2832C92.2734 87.7008 88.1389 95.5685 79.8575 101.018L80.9569 102.689C89.8305 96.8495 94.2734 88.337 94.2734 77.2832H92.2734ZM79.8588 101.017C71.5714 106.453 59.32 109.237 42.9707 109.237V111.237C59.4925 111.237 72.1988 108.433 80.9556 102.69L79.8588 101.017ZM42.9707 109.237C30.0277 109.237 19.926 106.713 12.5663 101.77L11.4513 103.431C19.2543 108.671 29.7939 111.237 42.9707 111.237V109.237ZM12.5704 101.773C5.24541 96.8008 1.63672 90.1844 1.63672 81.8486H-0.363281C-0.363281 90.8892 3.60941 98.1075 11.4471 103.428L12.5704 101.773ZM1.63672 81.8486C1.63672 76.5199 3.17547 72.329 6.17587 69.1734L4.72647 67.7953C1.3076 71.391 -0.363281 76.1097 -0.363281 81.8486H1.63672ZM6.17559 69.1737C9.23219 65.9617 13.1935 64.3379 18.1514 64.3379V62.3379C12.7055 62.3379 8.20011 64.1451 4.72676 67.795L6.17559 69.1737ZM18.1514 64.3379C22.2383 64.3379 25.5823 65.6131 28.2566 68.1331L29.6282 66.6775C26.5473 63.7743 22.6972 62.3379 18.1514 62.3379V64.3379ZM28.2566 68.1331C30.9257 70.6482 32.2588 73.7846 32.2588 77.6152H34.2588C34.2588 73.2558 32.7142 69.5855 29.6282 66.6775L28.2566 68.1331ZM32.2588 77.6152C32.2588 81.1335 31.1066 83.8678 28.8499 85.9239L30.1969 87.4023C32.9207 84.9206 34.2588 81.6231 34.2588 77.6152H32.2588ZM28.8508 85.9231C26.6491 87.9247 23.5673 88.9834 19.4795 88.9834V90.9834C23.9138 90.9834 27.528 89.8286 30.1961 87.403L28.8508 85.9231ZM18.857 90.766C21.3916 92.7822 24.2424 94.2786 27.402 95.2552L27.9926 93.3444C25.0649 92.4395 22.4372 91.0583 20.102 89.2008L18.857 90.766ZM27.4179 95.26C30.5721 96.1776 34.1835 96.6279 38.2393 96.6279V94.6279C34.3263 94.6279 30.9097 94.1929 27.9766 93.3396L27.4179 95.26ZM38.2393 96.6279C45.5751 96.6279 51.3746 94.9356 55.4916 91.4067L54.19 89.8882C50.5596 93 45.2914 94.6279 38.2393 94.6279V96.6279ZM55.4978 91.4014C59.6362 87.7951 61.6514 82.6781 61.6514 76.2041H59.6514C59.6514 82.2366 57.7929 86.7485 54.1838 89.8936L55.4978 91.4014ZM61.6514 76.2041C61.6514 70.3691 59.6701 65.9265 55.5754 63.0963L54.4383 64.7416C57.8696 67.1132 59.6514 70.8607 59.6514 76.2041H61.6514ZM55.5892 63.106C51.6269 60.2674 45.5609 58.9346 37.5752 58.9346V60.9346C45.4163 60.9346 50.9714 62.258 54.4244 64.7319L55.5892 63.106Z" fill="url(#paint0_linear_0_121)"/>
<defs>
<linearGradient id="paint0_linear_0_121" x1="40.3333" y1="-7.00001" x2="111.131" y2="13.9241" gradientUnits="userSpaceOnUse">
<stop stop-color="#07A568"/>
<stop offset="1" stop-color="#07A568" stop-opacity="0"/>
</linearGradient>
</defs>
</svg>
