<svg width="72" height="72" viewBox="0 0 72 72" fill="none" xmlns="http://www.w3.org/2000/svg">
<path fill-rule="evenodd" clip-rule="evenodd" d="M56.2822 0.136079C55.7639 0.410288 54.6017 1.52043 49.1636 6.93608L43.6235 12.4533L43.672 15.2468C43.6987 16.7833 43.7683 18.9997 43.8268 20.1723L43.9333 22.3042L39.9105 26.3162C37.3114 28.9085 35.7263 30.4342 35.4315 30.6275C35.1806 30.7921 34.7233 31.0114 34.4152 31.1151C32.8176 31.6523 31.6991 32.7404 31.1851 34.2575C30.9163 35.0506 30.8422 36.4856 31.0287 37.2827C31.2499 38.2275 31.8465 39.1719 32.7081 39.9409C33.5541 40.696 34.4727 41.022 36.0347 41.1213C36.9386 41.1789 37.3691 41.078 38.3102 40.5879C39.5693 39.932 40.639 38.6496 40.9291 37.4481C41.16 36.4918 41.3533 36.2679 46.0018 31.5734L49.5624 27.9776L52.4638 28.1C57.0609 28.294 58.5464 28.3238 59.031 28.232C59.606 28.1231 59.6417 28.0904 64.875 22.8923C69.7709 18.0294 71.4123 16.3122 71.6814 15.772C71.9691 15.1948 71.8976 14.4217 71.5197 14.0208C71.0797 13.5541 70.3503 13.3942 67.3824 13.1145C66.2708 13.0097 65.2339 12.9007 65.0783 12.8724L64.7954 12.8208L65.4694 12.0871C67.0103 10.4096 67.3101 8.79974 66.4125 7.0215C66.07 6.34253 65.4844 5.77823 64.7313 5.40118C63.0694 4.56907 61.6323 4.84394 59.9957 6.30695C59.4588 6.78692 59.1091 7.01437 59.0515 6.92101C59.0056 6.84661 58.8794 5.73015 58.7461 4.21965C58.5065 1.50323 58.342 0.789622 57.8569 0.363606C57.4278 -0.0133019 56.7497 -0.111223 56.2822 0.136079ZM32.2128 0.146739C30.1466 0.315601 27.0219 1.0184 24.4585 1.89079C17.6704 4.20105 11.6574 8.53164 7.306 14.2441C0.979792 22.5492 -1.43299 33.5573 0.836025 43.763C2.845 52.7992 8.36587 60.8679 16.0428 65.9874C21.0242 69.3093 26.5288 71.2563 32.764 71.9018C34.1783 72.0482 38.0303 72.0269 39.526 71.8644C46.9543 71.0573 53.4097 68.3339 59.1505 63.5853C60.2745 62.6555 62.6167 60.3171 63.5714 59.1716C68.162 53.6633 70.9592 47.2274 71.7507 40.3519C72.1391 36.9788 72.0698 33.0645 71.57 30.1335C71.2 27.9638 69.9902 23.6013 69.5734 22.9338C69.5212 22.8503 69.4252 22.782 69.3599 22.782C69.2392 22.782 68.6197 23.3101 67.7416 24.1615L67.2554 24.6329L67.431 25.1961C68.721 29.3339 69.2199 32.3627 69.2199 36.0554C69.2199 42.6129 67.2805 48.9789 63.6108 54.4667C62.2985 56.4292 60.6941 58.2906 58.6343 60.2406C54.2948 64.3486 49.0132 67.1413 43.0802 68.4651C40.7696 68.9806 37.8288 69.2216 34.7852 69.1449C32.8837 69.097 31.7618 68.9868 30.1711 68.6916C20.9169 66.9743 12.8075 61.4949 7.86702 53.6213C5.30283 49.5348 3.46548 44.3375 3.07226 40.0579C2.94746 38.7004 2.89762 34.6624 2.98465 32.9638C3.07513 31.1981 3.22683 30.2116 3.70017 28.3119C5.40581 21.4665 9.08999 15.4068 14.2661 10.9331C18.204 7.52964 22.8775 5.07727 27.8028 3.82981C30.4986 3.14701 32.5142 2.87111 35.263 2.80862C37.9879 2.74665 40.1378 2.943 42.7967 3.49679C43.8967 3.72586 46.1262 4.33786 46.9958 4.64949L47.2993 4.75822L48.1881 3.91501C48.6769 3.45121 49.1451 2.97594 49.2286 2.85883L49.3801 2.64586L49.1968 2.52574C48.3922 1.99842 43.5869 0.676557 41.2054 0.327364C39.6317 0.0966756 34.1681 -0.0130814 32.2128 0.146739ZM63.6197 7.79598C63.9812 7.97109 64.2182 8.37409 64.2358 8.84422C64.2483 9.17408 63.9487 9.5748 62.6196 11.0067C60.3218 13.4822 40.3193 33.4271 37.9906 35.5648C37.3266 36.1744 37.2876 36.1982 36.9616 36.1925C36.5365 36.1852 36.2112 36.0181 35.9467 35.6712C35.7728 35.4432 35.7407 35.3309 35.7407 34.95C35.7407 34.5624 35.7702 34.4634 35.9501 34.2459C36.9782 33.0032 57.1346 12.7113 60.3632 9.66876C62.5585 7.59999 62.8585 7.42745 63.6197 7.79598ZM33.4622 10.4773C29.3323 10.8837 25.4394 12.27 21.9228 14.5865C16.6233 18.0776 12.7901 23.4345 11.1925 29.5821C10.6926 31.506 10.5157 32.8295 10.446 35.1692C10.2809 40.7089 11.6411 45.5977 14.5776 50.0191C16.0183 52.1884 17.8843 54.2409 20.0711 56.062C22.5497 58.1259 26.3589 59.9807 30.0813 60.9361C32.1055 61.4556 34.1815 61.6475 36.9535 61.5713C38.8507 61.5191 39.5563 61.4504 40.868 61.1897C44.6624 60.4357 48.3003 58.8113 51.3966 56.4883C56.3368 52.7821 59.7218 47.5056 61.0883 41.3811C61.7235 38.5339 61.7785 33.7518 61.2065 31.1082C61.1606 30.8962 61.0961 30.7062 61.0631 30.6858C61.0301 30.6654 60.793 30.7466 60.5362 30.8661C59.9494 31.1392 59.2972 31.3097 58.8387 31.3097C58.5886 31.3097 58.4717 31.3428 58.4413 31.422C58.4176 31.4838 58.4673 31.9552 58.5518 32.4696C59.2052 36.447 58.7674 40.4627 57.2636 44.285C55.0379 49.9422 50.6873 54.4746 45.1645 56.8898C41.3587 58.5541 37.613 59.0888 33.0481 58.6193C31.7535 58.4862 30.7921 58.2874 29.5038 57.8864C21.0248 55.2479 14.8194 48.1745 13.4759 39.6168C13.1524 37.5556 13.134 34.7038 13.4316 32.7432C14.1874 27.7638 16.3732 23.4397 19.9361 19.8761C24.1062 15.7052 29.384 13.3927 35.2262 13.1766C36.8535 13.1164 39.5107 13.3148 40.3833 13.5616C40.6159 13.6274 40.6708 13.47 40.8082 12.343C40.8747 11.7971 40.9478 11.2436 40.9707 11.1129C41.0227 10.8157 40.9402 10.7789 39.8426 10.6111C39.2406 10.5189 38.4076 10.4846 36.4022 10.469C34.9469 10.4577 33.624 10.4615 33.4622 10.4773ZM33.4622 21.0898C32.3782 21.2434 30.9417 21.6883 29.7749 22.2319C25.5881 24.1822 22.4839 27.9038 21.3666 32.3126C20.6623 35.0913 20.8048 38.3398 21.7444 40.9267C22.079 41.848 22.9074 43.5176 23.4106 44.285C25.808 47.9413 29.6419 50.3617 33.9984 50.9695C35.0498 51.1161 36.9108 51.1186 38.0078 50.9747C44.3973 50.137 49.7403 45.0587 50.8861 38.7346C51.0461 37.8516 51.102 35.7428 50.9981 34.5076C50.9039 33.3862 50.7267 32.4653 50.4381 31.5968L50.2526 31.0386L48.9685 30.9922C47.5964 30.9426 47.2592 30.9899 47.3561 31.2188C47.6028 31.8019 47.997 33.1147 48.1339 33.8092C48.3524 34.9183 48.368 36.7835 48.1682 37.8892C47.9079 39.3286 47.3604 40.8621 46.672 42.0795C44.8365 45.3255 41.2686 47.7687 37.82 48.1409C36.2262 48.313 33.7632 48.1773 32.6905 47.8583C31.3184 47.4504 30.0957 46.8662 29.0155 46.1025C28.1205 45.4696 26.6196 43.9688 25.985 43.072C25.088 41.8044 24.2744 39.9836 23.9805 38.5864C23.7208 37.3516 23.704 34.9126 23.9459 33.5781C24.0782 32.8488 24.5034 31.632 24.9314 30.7583C26.554 27.4461 29.5583 24.9541 33.0454 24.0281C33.8139 23.8239 35.6259 23.7304 37.1722 23.815C38.4126 23.883 38.8154 23.9599 40.0585 24.3663C40.5459 24.5256 40.7219 24.5558 40.7865 24.4912C40.8444 24.4334 40.874 23.9746 40.8788 23.0624L40.8857 21.7188L40.261 21.5158C39.1942 21.1693 38.3788 21.0798 36.0347 21.0523C34.8624 21.0386 33.7048 21.0554 33.4622 21.0898Z" fill="#07A568"/>
</svg>
