<svg width="72" height="72" viewBox="0 0 72 72" fill="none" xmlns="http://www.w3.org/2000/svg">
<path fill-rule="evenodd" clip-rule="evenodd" d="M66.5791 0.075031C66.4415 0.125311 65.5186 0.61776 64.5282 1.16934C63.5378 1.72093 62.1872 2.47078 61.527 2.8357C57.4749 5.07501 57.4644 5.08152 56.84 5.73141C55.9244 6.68449 55.4406 7.73402 55.2954 9.08179C55.2637 9.37632 55.2507 9.74124 55.2665 9.89263C55.3096 10.3057 55.2262 10.7598 55.0321 11.1685C54.8634 11.524 54.6402 11.7521 46.4195 19.9749L37.9801 28.4165L33.2068 23.6447C29.4756 19.9147 28.4382 18.8511 28.4553 18.7729C28.4673 18.7178 28.5468 18.414 28.6319 18.0978C29.1828 16.0515 29.2573 13.6048 28.8301 11.5935C28.231 8.7735 26.994 6.43369 25.0381 4.42112C22.7542 2.07114 19.9756 0.653032 16.67 0.150527C15.9594 0.0424614 13.6442 0.0273522 12.9566 0.126262C11.7096 0.305621 10.42 0.628517 9.96592 0.875016C9.21836 1.28091 8.91663 2.22654 9.29659 2.97289C9.39893 3.17391 10.0875 3.8921 12.3432 6.15066C14.9608 8.7716 15.2739 9.10205 15.4187 9.39628C15.7588 10.0876 15.7549 10.7873 15.4073 11.4724C15.2466 11.7889 15.0509 12.0033 13.6153 13.4347C12.1638 14.882 11.9714 15.0563 11.6797 15.1882C11.002 15.4948 10.3519 15.4866 9.6802 15.1629C9.32155 14.9901 9.17744 14.8549 6.40373 12.088C4.80801 10.4962 3.45264 9.15899 3.39176 9.11631C3.05857 8.88292 2.43251 8.81558 1.98317 8.96487C1.65458 9.07404 1.26677 9.42435 1.106 9.75725C0.853147 10.2809 0.519857 11.6687 0.370595 12.8193C0.28796 13.4567 0.28781 15.4676 0.370395 16.0962C0.636606 18.1223 1.2113 19.8743 2.15319 21.5314C3.72175 24.2908 6.16313 26.4704 9.08235 27.7175C10.0589 28.1347 11.3585 28.511 12.3813 28.6727C14.501 29.0079 16.8332 28.8557 18.784 28.2548L19.1092 28.1547L22.02 31.0653C23.621 32.6662 24.9214 33.9913 24.9098 34.01C24.8983 34.0287 24.778 34.0586 24.6427 34.0766C24.0798 34.1513 23.1932 34.5398 22.6896 34.9324C22.189 35.3227 0.959942 56.6187 0.754806 56.9364C0.486443 57.352 0.249244 57.888 0.118089 58.3752C-0.0400277 58.9624 -0.0392271 60.0567 0.11969 60.6483C0.251995 61.1407 0.558473 61.7916 0.848195 62.1956C1.14717 62.6125 9.47356 70.9258 9.86443 71.1976C10.2873 71.4917 10.7215 71.6982 11.2559 71.8591C11.6541 71.9792 11.7926 71.9953 12.4564 71.9995C13.09 72.0034 13.2728 71.9864 13.6319 71.89C14.1406 71.7534 14.6769 71.5082 15.1272 71.2065C15.3611 71.0497 18.6203 67.8179 26.2893 60.1382C36.4303 49.9829 37.1361 49.2651 37.3593 48.8795C37.617 48.4343 37.871 47.748 37.9228 47.357C37.9407 47.2227 37.9705 47.1033 37.9892 47.0918C38.0079 47.0802 39.3325 48.3809 40.9328 49.9822L43.8424 52.8936L43.7646 53.118C43.2915 54.4828 43.0403 56.8272 43.1883 58.4979C43.3486 60.308 43.8722 62.1851 44.6503 63.7381C45.3737 65.1822 46.4972 66.6796 47.7216 67.8314C48.0666 68.156 48.8032 68.7733 49.0467 68.942C50.6718 70.0675 51.9424 70.6922 53.5436 71.1532C54.9278 71.5517 55.9999 71.699 57.5253 71.7001C58.9071 71.701 59.7469 71.6032 60.9767 71.2979C62.1199 71.0141 62.4073 70.8846 62.7448 70.501C62.9926 70.2195 63.1151 69.8691 63.1151 69.442C63.1151 68.8098 63.1268 68.8238 59.8944 65.5867C57.3596 63.0482 56.9921 62.661 56.8517 62.3804C56.5134 61.7043 56.4959 61.0108 56.8003 60.3393C56.9405 60.0301 57.0889 59.865 58.515 58.4319C59.3737 57.5689 60.1889 56.7882 60.3265 56.6969C60.9953 56.2527 61.9697 56.2138 62.6513 56.6041C62.7862 56.6813 64.0588 57.9104 65.8037 59.6487C69.1356 62.968 68.9888 62.8484 69.7304 62.8491C70.107 62.8495 70.2188 62.83 70.4142 62.7301C71.03 62.4153 71.292 61.9109 71.6256 60.3981C71.8883 59.2073 71.9289 58.7894 71.9296 57.2712C71.9303 55.7837 71.901 55.4706 71.6489 54.2694C71.4292 53.2226 70.9707 51.9033 70.4927 50.9424C68.5963 47.1298 65.1073 44.3239 61.0111 43.3172C59.6564 42.9842 59.2257 42.9374 57.5253 42.9382C56.1123 42.9389 55.9793 42.9469 55.2493 43.0762C54.8229 43.1517 54.2151 43.2833 53.8988 43.3687C53.5824 43.454 53.2785 43.5337 53.2235 43.5457C53.1453 43.5627 52.0824 42.5258 48.3552 38.796L43.587 34.0245L51.9567 25.6424C56.5601 21.0323 60.4296 17.1913 60.5557 17.1069C61.0013 16.8086 61.3303 16.7351 62.2773 16.7224C62.9224 16.7137 63.2363 16.6862 63.5778 16.6084C64.6776 16.3577 65.5907 15.8545 66.3375 15.0875C66.9346 14.4743 66.9711 14.4176 68.2302 12.1438C68.8016 11.112 69.533 9.79492 69.8555 9.21707C71.2624 6.6965 71.8649 5.58252 71.9394 5.36374C72.0488 5.04264 72.007 4.56855 71.8391 4.2263C71.6484 3.83746 68.0889 0.290412 67.7302 0.131716C67.3885 -0.0195261 66.9031 -0.0433908 66.5791 0.075031ZM16.5331 3.38059C17.7305 3.59537 18.6175 3.88274 19.6594 4.39335C22.5796 5.82447 24.7649 8.52836 25.5595 11.6936C25.8246 12.7496 25.8618 13.0891 25.8607 14.4452C25.8596 15.8346 25.8177 16.1985 25.5331 17.2842C25.2615 18.32 25.2874 18.2784 24.2954 19.2771C23.2375 20.3423 23.164 20.4605 23.1621 21.0993C23.161 21.4645 23.1805 21.5645 23.2999 21.8078C23.5633 22.3442 24.0329 22.6536 24.6365 22.6884C25.2227 22.7222 25.491 22.5984 26.0885 22.0185L26.5693 21.5518L31.1302 26.1098C33.6387 28.6166 35.6911 30.6769 35.6911 30.6883C35.6911 30.6996 35.2969 31.103 34.8152 31.5847L33.9393 32.4605L33.5272 32.2579C32.8812 31.9404 32.4316 31.8389 31.6644 31.8374C30.939 31.836 30.4524 31.9354 29.8525 32.2075C29.4993 32.3676 28.7701 32.869 28.6585 33.0284C28.5945 33.1197 28.3194 32.8556 24.516 29.0514C20.1706 24.7051 20.2697 24.7943 19.7067 24.724C19.422 24.6884 19.1761 24.7432 18.4589 25.0023C17.8568 25.2199 17.2563 25.3778 16.5185 25.5128C15.9963 25.6083 15.7339 25.6245 14.7073 25.6244C13.6747 25.6244 13.4167 25.6083 12.8629 25.5093C10.474 25.0824 8.45164 24.0338 6.77718 22.3538C5.15015 20.7213 4.0734 18.6824 3.67768 16.4844C3.54968 15.7733 3.45054 14.4084 3.49911 14.0259L3.53647 13.7317L5.3953 15.5841C7.39149 17.5733 7.69532 17.8246 8.52366 18.1719C9.99368 18.7881 11.7024 18.7554 13.0566 18.0849C13.8054 17.7143 14.1498 17.4252 15.7756 15.8031C17.3926 14.1895 17.743 13.811 18.0266 13.3712C18.5459 12.5658 18.8833 11.403 18.8836 10.4178C18.8838 9.69286 18.6403 8.65228 18.3218 8.01635C17.9683 7.31077 17.7281 7.03115 15.8349 5.12194L13.957 3.22819L14.9574 3.25276C15.6534 3.26987 16.1329 3.30874 16.5331 3.38059ZM67.6165 4.37604C68.05 4.8091 68.4048 5.17832 68.4048 5.19654C68.4048 5.21475 67.7389 6.43073 66.9248 7.89877C63.9849 13.2008 64.2495 12.7714 63.6926 13.1434C63.241 13.4449 63.0058 13.4981 62.0022 13.5249C61.3221 13.5431 61.0058 13.5755 60.5846 13.6699C59.9679 13.8081 59.1889 14.1547 58.6576 14.5272C58.2522 14.8116 55.2922 17.7436 55.3349 17.8186C55.3517 17.8482 55.3459 17.8545 55.322 17.8327C55.2652 17.781 45.0917 27.9562 45.131 28.0255C45.1476 28.0546 45.1419 28.061 45.1184 28.0396C45.0615 27.9879 44.4909 28.5557 44.5302 28.6249C44.5471 28.6546 44.5438 28.6635 44.5228 28.6447C44.4694 28.5967 44.1403 28.9065 44.1787 28.9686C44.196 28.9966 44.1878 29.0057 44.1605 28.9889C44.1085 28.9567 43.7103 29.3334 43.732 29.3942C43.7389 29.4135 43.727 29.4293 43.7057 29.4293C43.6369 29.4293 42.9996 30.0731 43.0261 30.1159C43.0401 30.1387 43.0218 30.1511 42.9854 30.1435C42.9487 30.1359 42.9266 30.1633 42.9358 30.2048C42.945 30.2461 42.9349 30.2622 42.9134 30.2408C42.8919 30.2193 41.6397 31.435 40.1307 32.9424C38.6217 34.4498 37.3776 35.6918 37.366 35.7024C37.3193 35.7452 36.2992 34.6856 36.3056 34.601C36.3093 34.5519 36.3235 34.5229 36.3371 34.5365C36.3789 34.5783 39.5391 31.3901 39.5072 31.3384C39.4907 31.3118 39.499 31.3035 39.5257 31.3199C39.5989 31.3652 57.1905 13.736 57.4627 13.3446C57.8845 12.7376 58.2175 11.9624 58.3786 11.2119C58.4348 10.9501 58.4667 10.5412 58.4739 9.99254C58.4804 9.49489 58.5098 9.08754 58.5481 8.96692C58.7778 8.24223 59.1569 7.81552 59.9763 7.35945C60.2789 7.19104 61.0105 6.7836 61.602 6.4541C62.8748 5.74507 64.07 5.08177 64.4532 4.87189C64.6045 4.78899 65.1785 4.46794 65.7287 4.15846C66.2789 3.84892 66.7514 3.59411 66.7786 3.59216C66.8058 3.59026 67.1828 3.94298 67.6165 4.37604ZM32.164 35.1424C32.3848 35.2524 36.7278 39.5972 36.8552 39.8356C36.9931 40.0936 37.0011 40.5613 36.872 40.8112C36.8222 40.9075 36.5197 41.2508 36.1997 41.574L35.618 42.1617L34.1914 40.744C32.5702 39.1328 32.5107 39.0908 31.8507 39.0929C30.9667 39.0957 30.2888 39.7902 30.2888 40.6932C30.2888 40.8888 30.328 41.1124 30.3925 41.2848C30.4872 41.5378 30.6742 41.7399 32.5437 43.6096C34.8178 45.8839 34.8023 45.8641 34.8095 46.4897C34.8126 46.7529 34.7854 46.902 34.7003 47.09C34.6054 47.2997 32.8665 49.0603 23.9719 57.9525C15.3084 66.6138 13.3114 68.5861 13.1099 68.6804C12.9351 68.7623 12.7674 68.797 12.5347 68.7996C11.8591 68.807 12.1539 69.063 7.59518 64.511C4.64399 61.5642 3.44453 60.3345 3.34339 60.152C3.22144 59.932 3.20258 59.8439 3.20333 59.4976C3.20403 59.1762 3.22734 59.0529 3.32148 58.8722C3.40417 58.7135 6.5787 55.5066 14.0751 48.0091C24.0926 37.9902 24.7264 37.3664 24.9675 37.2883C25.2756 37.1885 25.7094 37.1763 25.9707 37.2601C26.2474 37.3488 26.437 37.5019 27.1375 38.2016C27.9042 38.9676 28.1112 39.0831 28.7132 39.0809C29.1938 39.0791 29.4964 38.9545 29.8302 38.6209C30.1014 38.3497 30.2446 38.0309 30.2771 37.6258C30.3083 37.2373 30.2258 36.9239 30.0097 36.6096L29.8473 36.3734L30.4307 35.796C31.0192 35.2137 31.1409 35.1217 31.4143 35.0523C31.6081 35.0032 31.972 35.0469 32.164 35.1424ZM46.5585 41.5476C52.088 47.0713 51.9049 46.9025 52.4854 47.0126C52.7812 47.0687 53.1006 47.0041 53.8192 46.7427C55.6064 46.0927 57.7726 45.9267 59.6762 46.2939C61.8571 46.7148 63.8488 47.7739 65.4427 49.3606C66.8506 50.7621 67.7889 52.3386 68.3249 54.2029C68.605 55.1772 68.7127 55.9153 68.7399 57.0461L68.764 58.0467L66.9462 56.2402C65.9465 55.2466 64.9858 54.3263 64.8114 54.1951C64.2191 53.7495 63.4004 53.3887 62.5774 53.2106C62.0759 53.1021 60.8612 53.1284 60.3345 53.2593C59.4865 53.4699 58.7135 53.852 58.1104 54.3588C57.9646 54.4814 57.1151 55.3125 56.2226 56.2057C54.5849 57.8448 54.2842 58.1988 53.9323 58.9022C53.2151 60.3356 53.21 62.1865 53.9191 63.6856C54.2624 64.4115 54.5097 64.7016 56.4118 66.6099L58.2648 68.469L57.9754 68.5052C57.4618 68.5694 56.178 68.4608 55.2326 68.2732C54.1075 68.0499 52.4712 67.3756 51.4727 66.7238C49.6819 65.5548 48.1794 63.8047 47.3316 61.9005C46.1715 59.2946 46.0347 56.3924 46.9444 53.6846C47.0614 53.3365 47.1271 53.2174 47.2568 53.1187C47.3471 53.0499 47.8018 52.6109 48.2671 52.1431C48.8314 51.5759 49.1448 51.2214 49.2078 51.0789C49.5034 50.4113 49.3658 49.6773 48.8574 49.2085C48.5244 48.9015 48.2457 48.7954 47.7712 48.7948C47.2024 48.794 46.9719 48.9221 46.2455 49.6424L45.6703 50.2129L42.2827 46.8234L38.8952 43.4339L39.0069 43.3108C39.8558 42.3752 40.2888 41.0886 40.1471 39.923C40.0749 39.3287 39.9761 38.9723 39.7574 38.518C39.6559 38.3071 39.5657 38.1221 39.5569 38.1068C39.5374 38.0729 41.2912 36.2904 41.3192 36.3157C41.33 36.3255 43.6878 38.6798 46.5585 41.5476ZM24.3622 42.145C24.17 42.1862 23.8389 42.2869 23.6264 42.3689C22.7847 42.6936 22.8399 42.6429 17.4176 48.0577C14.644 50.8275 12.3224 53.1837 12.2585 53.2938C11.92 53.8773 12.0067 54.6465 12.4703 55.1747C12.8428 55.599 13.5649 55.7767 14.1669 55.5923C14.4488 55.506 14.5212 55.4398 16.6539 53.3229C17.8621 52.1237 20.1285 49.8662 21.6904 48.3062C23.2523 46.7462 24.6048 45.4298 24.6959 45.3808C24.9376 45.2511 25.5498 45.2556 25.7984 45.389C26.0678 45.5336 26.5381 46.0065 26.6441 46.2395C26.7019 46.3666 26.7356 46.5591 26.7363 46.767C26.7372 47.0487 26.7146 47.1322 26.5748 47.3647L26.4122 47.6351L27.4489 48.6577C28.019 49.2202 28.5321 49.713 28.589 49.7528C28.7163 49.8421 28.7615 49.8099 29.0593 49.4187C30.0835 48.0734 30.2451 46.1981 29.4637 44.7265C28.9084 43.6805 27.8922 42.7557 26.8626 42.3591C26.1132 42.0705 25.1105 41.9846 24.3622 42.145ZM23.7361 50.4555C23.5429 50.5252 22.5944 51.4521 17.0443 56.9944L10.5777 63.4521L11.6808 64.5517C12.2875 65.1565 12.8005 65.657 12.8207 65.6639C12.8409 65.6709 15.7528 62.7779 19.2915 59.235C25.4607 53.0587 25.7293 52.7822 25.8173 52.5183C26.1817 51.4257 25.4262 50.3583 24.2969 50.3707C24.1123 50.3727 23.8599 50.4109 23.7361 50.4555ZM10.1304 55.5289C9.88204 55.6226 9.6737 55.8135 7.98989 57.49C5.92783 59.5433 5.88416 59.5987 5.84184 60.2124C5.79752 60.8547 6.13626 61.4481 6.7079 61.7296C6.99177 61.8693 7.09026 61.8919 7.42085 61.8926C8.09123 61.8939 8.06697 61.9123 10.1929 59.7837C12.1901 57.784 12.2378 57.7256 12.3083 57.1928C12.3746 56.6908 12.1088 56.0491 11.7077 55.7431C11.2814 55.4179 10.6519 55.3325 10.1304 55.5289Z" fill="#07A568"/>
</svg>
