<svg width="74" height="72" viewBox="0 0 74 72" fill="none" xmlns="http://www.w3.org/2000/svg">
<path fill-rule="evenodd" clip-rule="evenodd" d="M50.0689 0.063537C49.149 0.126551 48.837 0.289159 48.5876 0.835577C48.2855 1.49747 48.4423 2.22335 49.0251 2.86134L49.2984 3.16045L52.7097 3.2098C56.9877 3.27159 60.4724 3.3472 60.505 3.37887C60.5189 3.39221 60.1672 3.65376 59.7237 3.96007C58.3697 4.89513 54.6125 7.49972 53.6536 8.16783C53.156 8.51457 51.9346 9.36165 50.9394 10.0502C49.9442 10.7388 48.7229 11.5856 48.2253 11.9321C47.7277 12.2786 46.1547 13.3708 44.7298 14.3591C43.3049 15.3475 40.9177 17.0043 39.4249 18.0408C37.9321 19.0773 35.4709 20.7855 33.9555 21.8369C25.5117 27.6949 14.648 35.2497 12.9004 36.479C12.154 37.0041 10.1761 38.389 8.50496 39.5567C6.83388 40.7244 5.31075 41.8271 5.12035 42.0071C4.57506 42.5226 4.4572 43.2428 4.80041 43.9624C4.98136 44.3418 5.50494 44.6559 6.0666 44.7221C6.47496 44.7703 6.50868 44.7576 7.20596 44.2965C8.55201 43.4063 19.159 36.1087 29.2675 29.1182C30.3305 28.383 31.9035 27.2959 32.7629 26.7023C38.5047 22.7367 46.5737 17.1515 47.3617 16.5973C47.7914 16.295 48.9388 15.4966 49.9113 14.8233C55.2477 11.1284 59.5627 8.12102 62.5609 6.00687C62.8581 5.79729 62.9268 5.77675 62.9914 5.87839C63.0337 5.94492 63.0693 6.86476 63.0706 7.92248C63.0729 9.94236 63.1275 13.2418 63.1934 15.3484C63.2446 16.9849 63.4152 17.4001 64.1811 17.7518C64.8073 18.0393 65.5491 17.8775 66.0661 17.3407C66.2616 17.1375 66.3074 16.9994 66.3716 16.4174C66.4137 16.0364 66.4371 12.4871 66.4245 8.41105L66.4018 1.08919L66.2111 0.761843C65.9456 0.305689 65.6931 0.146109 65.1025 0.0610819C64.5261 -0.0218179 51.2845 -0.0196901 50.0689 0.063537ZM56.602 26.8199C55.8659 26.87 55.7321 26.9033 55.4711 27.1014C55.032 27.4345 54.9147 27.7325 54.8391 28.7057C54.8024 29.18 54.7704 38.3787 54.7681 49.1473L54.7639 68.7266H53.043H51.322L51.2941 52.5844C51.2631 34.6536 51.3139 36.1367 50.7119 35.6108C50.5062 35.4311 50.3004 35.3392 50.0211 35.3024C49.8025 35.2736 47.6173 35.2341 45.1653 35.2146L40.7071 35.1792L40.1824 35.6305L39.6577 36.0817L39.603 44.4865C39.573 49.1092 39.5484 56.4543 39.5484 60.8089L39.5483 68.7266H37.9445H36.3407V58.3515V47.9764L35.8244 47.4673L35.3081 46.9582H29.5096H23.711L23.1994 47.4719L22.6877 47.9856V58.3561V68.7266H21.7419H20.7961V62.5575V56.3885L20.2738 55.9449L19.7514 55.5012L14.4556 55.5244C11.142 55.5389 9.00272 55.58 8.74027 55.6342C8.2838 55.7285 7.88096 56.0624 7.72403 56.4766C7.50304 57.0598 7.45032 58.7547 7.49909 63.7067L7.54836 68.7118L4.40547 68.7397C1.29202 68.7672 1.25879 68.7693 0.866396 68.9615C-0.140631 69.4548 -0.296406 70.7115 0.539301 71.6005L0.914922 72H37.044H73.1731L73.505 71.6249C73.9302 71.1442 74.0411 70.8023 73.9875 70.137C73.8854 68.8726 73.3807 68.7305 68.9815 68.728L66.462 68.7266L66.4771 54.5894C66.4855 46.8139 66.4719 37.6535 66.447 34.2327C66.4021 28.0553 66.4006 28.011 66.224 27.6859C66.1261 27.5058 65.9113 27.2296 65.7465 27.0721L65.4469 26.7857L61.4419 26.7744C59.2392 26.7681 57.0612 26.7886 56.602 26.8199ZM62.9063 30.1801C63.0692 30.2824 63.1285 36.5203 63.1426 55.0804L63.153 68.7266H60.6031H58.0531L58.0593 49.6793C58.0627 39.2033 58.0856 30.5123 58.1101 30.366L58.1547 30.1L60.4688 30.1012C61.7819 30.102 62.8363 30.136 62.9063 30.1801ZM47.9386 52.1343C47.9392 59.6172 47.963 66.3875 47.9915 67.1795L48.0434 68.6195L47.7746 68.673C47.6266 68.7025 46.4554 68.7266 45.1719 68.7266H42.8381V53.6278V38.5291H45.3878H47.9374L47.9386 52.1343ZM32.9867 52.7072C32.9994 54.0688 33.0209 58.23 33.0345 61.9546L33.0593 68.7266H29.5058H25.9523L26.0047 64.778C26.0335 62.6062 26.0577 58.4449 26.0584 55.5305L26.0598 50.2317H29.5118H32.9639L32.9867 52.7072ZM17.5884 63.7755V68.7266H14.2163H10.8442V63.7755V58.8244H14.2163H17.5884V63.7755Z" fill="#07A568"/>
</svg>
