<svg width="72" height="78" viewBox="0 0 72 78" fill="none" xmlns="http://www.w3.org/2000/svg">
<path fill-rule="evenodd" clip-rule="evenodd" d="M51.2655 0.152863C51.0908 0.241902 50.8778 0.394178 50.792 0.491261C50.4696 0.85626 31.717 33.5645 31.6273 33.9182C31.5549 34.2039 31.5733 35.1009 31.7177 38.3383C31.8173 40.5723 31.9331 42.5925 31.9752 42.8277C32.1184 43.6295 32.6841 44.1124 33.4805 44.1124C33.8751 44.1124 34.1837 43.9769 37.7564 42.2351C40.4921 40.9013 41.6762 40.2846 41.8465 40.1047C41.9782 39.9654 46.3438 32.3971 51.5477 23.286C60.6038 7.43054 61.0107 6.70149 61.0415 6.27621C61.0801 5.74316 60.8862 5.28252 60.4969 4.98242C60.1792 4.73737 52.8518 0.336756 52.4339 0.139961C52.0289 -0.0507815 51.657 -0.0466402 51.2655 0.152863ZM53.0041 2.85495C53.405 2.97338 57.7983 5.6507 58.0875 5.95286C58.4049 6.28441 58.5332 6.66709 58.4883 7.14852C58.4604 7.44678 58.2474 7.87916 57.384 9.38917C56.7956 10.4181 56.3042 11.2733 56.2919 11.2893C56.2543 11.3389 49.3792 7.13291 49.3792 7.06044C49.3792 6.98231 51.0692 4.02816 51.4121 3.50698C51.5686 3.26893 51.7643 3.10089 52.037 2.97019C52.4765 2.75946 52.6219 2.7421 53.0041 2.85495ZM51.7766 11.2584C53.4992 12.3025 54.954 13.199 55.0095 13.2508C55.0904 13.3263 53.6877 15.8169 47.8733 25.9212C43.8931 32.8383 40.5451 38.575 40.4333 38.6695C40.3215 38.764 39.2348 39.3342 38.0184 39.9364C35.5867 41.1404 35.226 41.2516 34.6783 40.9656C33.8777 40.5475 33.8533 40.457 33.6781 37.2512C33.5599 35.0865 33.5491 34.4974 33.6243 34.3199C33.6762 34.1978 36.9725 28.4684 40.9495 21.5879L48.1805 9.07785L48.4125 9.21897C48.5401 9.29655 50.0539 10.2143 51.7766 11.2584ZM5.77841 23.0954C5.03799 23.184 3.91785 23.5743 3.26854 23.9699C1.78987 24.8708 0.747841 26.243 0.217083 27.9879L0 28.7017V50.4837C0 71.4675 0.00525885 72.2863 0.143845 72.8233C0.315068 73.4868 0.774135 74.5325 1.1288 75.067C1.99597 76.3739 3.46721 77.425 5.02685 77.8519C5.55026 77.9951 6.57582 78 36 78C65.4242 78 66.4497 77.9951 66.9732 77.8519C67.6174 77.6755 68.6329 77.2028 69.1519 76.8375C70.421 75.9445 71.4416 74.4294 71.8562 72.8233C71.9947 72.2863 72 71.4675 72 50.4837V28.7017L71.7864 28.0003C70.9432 25.2318 68.7862 23.3875 66.0361 23.0837C65.5529 23.0304 63.4083 23.0082 60.2062 23.0232C55.1857 23.0469 55.1379 23.0486 54.8314 23.219C53.9783 23.693 53.6228 24.7209 54.0089 25.5964C54.1582 25.9349 54.5976 26.3803 54.9366 26.5368C55.0849 26.6052 56.6547 26.6419 60.672 26.6708L66.2033 26.7106L66.7114 26.9683C67.6457 27.4421 68.29 28.3066 68.4739 29.3336C68.5876 29.9684 68.5941 71.1349 68.4806 71.7513C68.2431 73.0413 67.3673 73.9992 66.1197 74.3338C65.7147 74.4425 62.4021 74.4559 36 74.4559C9.59789 74.4559 6.28535 74.4425 5.88026 74.3338C4.63267 73.9992 3.75692 73.0413 3.51942 71.7513C3.40434 71.1266 3.41246 29.8468 3.52777 29.283C3.73495 28.2699 4.37158 27.4301 5.27897 26.9732L5.80021 26.7106L18.5994 26.6708L31.3985 26.631L31.7197 26.4541C32.5768 25.9821 32.8998 24.9822 32.4888 24.0731C32.3871 23.8482 32.1811 23.5686 32.029 23.4492C31.4374 22.9845 32.1132 23.0064 18.6837 23.0176C11.8955 23.0233 6.08814 23.0583 5.77841 23.0954ZM20.5609 43.1702C20.2718 43.3143 20.2234 43.5758 20.2234 44.9922C20.2234 46.5359 20.2508 46.6099 20.8559 46.6984C21.0397 46.7252 29.3801 46.7367 39.3902 46.724L57.5902 46.7007L57.7769 46.4773C57.9578 46.2606 57.9635 46.2141 57.9635 44.9389C57.9635 43.615 57.9243 43.3875 57.6609 43.1791C57.566 43.1041 55.4282 43.0815 48.2448 43.0796L38.9515 43.077L35.871 44.6015C33.0483 45.9985 32.755 46.1264 32.3652 46.1304C31.6864 46.1371 31.1163 45.7589 30.8626 45.1337C30.7975 44.9733 30.7213 44.4474 30.6926 43.96L30.6405 43.077L25.6834 43.0825C22.4379 43.086 20.669 43.1162 20.5609 43.1702ZM13.2778 43.3191C13.1154 43.4748 13.1085 43.542 13.1085 44.9459V46.4104L13.3123 46.5755C13.5007 46.7281 13.6174 46.7406 14.8625 46.7406C16.6875 46.7406 16.5886 46.8433 16.5886 44.9486C16.5886 43.0502 16.6932 43.1567 14.828 43.1567C13.5451 43.1567 13.435 43.1682 13.2778 43.3191ZM13.3182 51.4404L13.1085 51.6103V53.0779C13.1085 55.0091 12.9683 54.864 14.8351 54.864C16.7107 54.864 16.5886 54.9871 16.5886 53.0957C16.5886 51.1974 16.7097 51.3275 14.9107 51.2952C13.597 51.2717 13.5175 51.279 13.3182 51.4404ZM20.4447 51.4324C20.2646 51.5826 20.2621 51.6049 20.2621 53.0721C20.2621 54.5393 20.2646 54.5616 20.4447 54.7118C20.6232 54.8608 21.0272 54.864 39.1055 54.864H57.5838L57.7736 54.6685C57.9608 54.4758 57.9635 54.4533 57.9635 53.0721C57.9635 51.6909 57.9608 51.6684 57.7736 51.4757L57.5838 51.2802H39.1055C21.0272 51.2802 20.6232 51.2834 20.4447 51.4324ZM13.2632 59.6425C13.1197 59.7903 13.1085 59.908 13.1085 61.2694V62.737L13.3123 62.9021C13.5007 63.0547 13.6174 63.0672 14.8625 63.0672C16.1889 63.0672 16.2118 63.0643 16.3988 62.8716C16.5858 62.6791 16.5886 62.6556 16.5886 61.2895C16.5886 60.0074 16.5766 59.8871 16.4283 59.6931L16.2681 59.4833H14.8429C13.5209 59.4833 13.4066 59.4948 13.2632 59.6425ZM20.4447 59.6353C20.268 59.7825 20.2613 59.8303 20.2374 61.1188C20.2107 62.5628 20.2594 62.8265 20.5803 62.9772C20.7211 63.0433 25.6631 63.0672 39.178 63.0672H57.5838L57.7736 62.8716C57.9607 62.6791 57.9635 62.6556 57.9635 61.2895C57.9635 60.0074 57.9514 59.8871 57.8032 59.6931L57.6429 59.4833H39.1351C21.0351 59.4833 20.6232 59.4866 20.4447 59.6353Z" fill="#07A568"/>
</svg>
