<svg width="32" height="32" xmlns="http://www.w3.org/2000/svg">

 <g>
  <title>background</title>
  <rect fill="none" id="canvas_background" height="402" width="582" y="-1" x="-1"/>
 </g>
 <g>
  <title>Layer 1</title>
  <path stroke-width="0" id="svg_1" fill="#07A568" d="m23.080769,25.804352l-14.161516,0c-1.564235,0 -2.8323,-1.254158 -2.8323,-2.801224l0,-14.006236c0,-1.547084 1.268065,-2.801244 2.8323,-2.801244l14.161516,0c1.564217,0 2.832279,1.25416 2.832279,2.801244l0,14.006236c0,1.547066 -1.268063,2.801224 -2.832279,2.801224zm-14.161516,-16.80746l0,14.006236l14.161516,0l0,-14.006236l-14.161516,0zm5.664607,11.712016l-3.823611,-3.707455l1.982634,-2.002906l1.840978,1.780227l4.673259,-4.575858l1.982609,1.991674l-6.655868,6.51291l0,0.001408z"/>
  <rect id="svg_4" height="14.132759" width="14.239825" y="8.874733" x="8.880084" stroke-opacity="null" stroke-width="0" stroke="null" fill="#ffffff"/>
 </g>
</svg>