<svg width="39" height="43" viewBox="0 0 39 43" fill="none" xmlns="http://www.w3.org/2000/svg">
<path d="M39 43L34.2097 38.9263L31.5097 36.5047L28.6547 33.9474L29.8277 37.9283H4.56742C2.03768 37.9195 -0.00645873 35.9353 1.53358e-05 33.4947V4.429C-0.00386661 1.9902 2.03952 0.00873384 4.56742 0H34.4326C36.9605 0.00873384 39.0039 1.9902 39 4.429V43ZM28.385 23.7813C27.3958 25.0611 25.9717 25.9648 24.3618 26.3341C25.0233 27.1488 25.8209 28.0699 25.828 28.079C28.5189 28.1339 31.0669 26.9128 32.6474 24.811C32.5665 20.4538 31.4696 16.17 29.4383 12.2776C27.6498 10.9237 25.4729 10.1336 23.203 10.0145H23.1771L22.8651 10.3585C24.8927 10.8839 26.7835 11.8137 28.4155 13.0878C26.339 11.9866 24.0603 11.2856 21.7063 11.0238C20.2102 10.8635 18.6995 10.878 17.2069 11.0668C17.1014 11.0689 16.9963 11.0795 16.8926 11.0985H16.8269C15.0777 11.2928 13.371 11.751 11.7692 12.4564C10.9669 12.8117 10.4743 13.0697 10.4532 13.0788C10.4321 13.0878 10.4532 13.0788 10.4532 13.0629C12.1842 11.7495 14.1812 10.8005 16.3155 10.277L16.0809 10.019H16.0668C13.797 10.1384 11.6201 10.9285 9.83154 12.2822C7.79276 16.1719 6.6955 20.4573 6.6224 24.8155C8.18318 26.9313 10.7347 28.157 13.4254 28.0835C13.4254 28.0835 14.2652 27.0968 14.9197 26.2979C13.3503 25.9174 11.9675 25.0211 11.0092 23.7632C11.0256 23.7745 11.2578 23.9261 11.6332 24.1253C11.6584 24.1538 11.6895 24.177 11.7246 24.1932C11.7544 24.213 11.7858 24.2304 11.8185 24.2452C11.8556 24.2615 11.8909 24.2812 11.924 24.3041C12.4474 24.5824 12.9907 24.8244 13.5497 25.0283C14.6126 25.4343 15.712 25.7449 16.8339 25.9562C17.8163 26.1348 18.8136 26.2257 19.8132 26.2277C20.7504 26.2276 21.6857 26.1443 22.6071 25.9788C23.7168 25.7908 24.8006 25.481 25.8374 25.0554C26.7329 24.7231 27.5873 24.2958 28.385 23.7813ZM23.6041 22.8149C22.5835 22.9008 21.6129 22.3734 21.16 21.4868C20.707 20.6003 20.8647 19.5365 21.5569 18.8078C22.2492 18.0792 23.334 17.8353 24.2888 18.1936C25.2436 18.5519 25.8725 19.4389 25.8725 20.4273C25.9242 21.6899 24.9101 22.7562 23.6017 22.8149H23.6041ZM15.4686 22.8149C14.1851 22.707 13.2001 21.6703 13.2001 20.4273C13.2001 19.1843 14.1851 18.1476 15.4686 18.0396C16.0599 18.0414 16.6252 18.2741 17.0357 18.6846C17.5014 19.151 17.7548 19.7776 17.7394 20.425C17.7937 21.6898 16.7772 22.7586 15.4663 22.8149H15.4686Z" fill="#07A568"/>
</svg>
