<svg width="44" height="43" viewBox="0 0 44 43" fill="none" xmlns="http://www.w3.org/2000/svg">
<path d="M0 21.6294C0.0025597 32.2712 7.87221 41.3322 18.5608 43V27.8811H12.9795V21.6294H18.5674V16.8703C18.3176 14.6152 19.1009 12.3677 20.7049 10.7373C22.3089 9.107 24.5673 8.26278 26.8677 8.43365C28.5188 8.45987 30.1658 8.60447 31.7955 8.8663V14.1857H29.0148C28.0575 14.0624 27.095 14.3733 26.3986 15.0308C25.7021 15.6883 25.347 16.6212 25.4333 17.5668V21.6294H31.5293L30.5547 27.8833H25.4333V43C36.9928 41.2036 45.0986 30.8227 43.8786 19.3776C42.6586 7.93258 32.5397 -0.569893 20.8527 0.029863C9.16568 0.629619 0.00185778 10.1216 0 21.6294Z" fill="#07A568"/>
</svg>
