<svg width="1849" height="951" viewBox="0 0 1849 951" fill="none" xmlns="http://www.w3.org/2000/svg">
<rect x="67" y="70" width="1" height="881" fill="#D1D1D1"/>
<rect x="275" y="70" width="1" height="881" fill="#D1D1D1"/>
<rect x="482" y="70" width="1" height="881" fill="#D1D1D1"/>
<rect x="688" y="174" width="1" height="777" fill="#D1D1D1"/>
<rect x="894" y="239" width="1" height="712" fill="#D1D1D1"/>
<rect x="1101" y="380" width="1" height="571" fill="#D1D1D1"/>
<rect x="1307" y="394" width="1" height="557" fill="#D1D1D1"/>
<rect x="1513" y="380" width="1" height="571" fill="#D1D1D1"/>
<rect x="1722" y="274" width="1" height="677" fill="#D1D1D1"/>
<path d="M918.565 136.5L961 63L1003.44 136.5H918.565Z" stroke="#07A668" stroke-opacity="0.19"/>
<path d="M1415.3 68.3013L1488.8 25.866L1488.8 110.737L1415.3 68.3013Z" stroke="#07A668" stroke-opacity="0.19"/>
<path d="M1692.8 865.556L1753.18 865.556L1722.99 917.846L1692.8 865.556Z" stroke="#07A668" stroke-opacity="0.19"/>
<path d="M25.866 838.801L110.737 838.801L68.3013 912.301L25.866 838.801Z" stroke="#07A668" stroke-opacity="0.19"/>
<path d="M937.435 741.5L895 815L852.565 741.5L937.435 741.5Z" stroke="#07A668" stroke-opacity="0.19"/>
<circle cx="482" cy="112" r="49.5" stroke="#07A668" stroke-opacity="0.19"/>
<circle cx="275" cy="120" r="49.5" stroke="#07A668" stroke-opacity="0.19"/>
<circle cx="1514" cy="863" r="49.5" stroke="#07A668" stroke-opacity="0.19"/>
<path d="M688 814.618L698.75 847.704L698.862 848.049H699.226H734.014L705.87 868.497L705.576 868.711L705.688 869.056L716.438 902.142L688.294 881.694L688 881.48L687.706 881.694L659.562 902.142L670.312 869.056L670.424 868.711L670.13 868.497L641.986 848.049H676.774H677.138L677.25 847.704L688 814.618Z" stroke="#07A668" stroke-opacity="0.19"/>
<rect x="42.5" y="137.5" width="50" height="50" stroke="#07A668" stroke-opacity="0.19"/>
<rect x="42.5" y="466.5" width="50" height="50" stroke="#07A668" stroke-opacity="0.19"/>
<rect x="869.5" y="188.5" width="50" height="50" stroke="#07A668" stroke-opacity="0.19"/>
<path d="M1832 13.618L1842.75 46.7037L1842.86 47.0491H1843.23H1878.01L1849.87 67.4972L1849.58 67.7107L1849.69 68.0562L1860.44 101.142L1832.29 80.6938L1832 80.4803L1831.71 80.6938L1803.56 101.142L1814.31 68.0562L1814.42 67.7107L1814.13 67.4972L1785.99 47.0491H1820.77H1821.14L1821.25 46.7037L1832 13.618Z" stroke="#07A668" stroke-opacity="0.19"/>
</svg>
