<svg width="170" height="84" viewBox="0 0 170 84" fill="none" xmlns="http://www.w3.org/2000/svg">
<path d="M21.6579 60.4227C20.8531 61.1792 19.5806 61.1448 18.8795 60.2914C15.6203 56.3242 13.4482 51.5647 12.5954 46.4806C11.6322 40.7378 12.3956 34.8387 14.7891 29.5292C17.1826 24.2198 21.0986 19.7384 26.0421 16.6519C30.9856 13.5654 36.7344 12.0123 42.5616 12.1891C48.3888 12.3659 54.0326 14.2645 58.7795 17.645C63.5263 21.0255 67.1628 25.736 69.2293 31.1807C71.2957 36.6255 71.6993 42.56 70.3889 48.2339C69.2287 53.2569 66.7714 57.876 63.2771 61.6383C62.5254 62.4476 61.2533 62.4047 60.4958 61.6008L55.2811 56.0661C54.5237 55.2622 54.5721 54.0037 55.2872 53.1621C57.1279 50.996 58.4305 48.4141 59.0743 45.627C59.8685 42.1883 59.6239 38.5915 58.3715 35.2916C57.1191 31.9918 54.9151 29.1369 52.0382 27.0881C49.1613 25.0393 45.7407 23.8886 42.2091 23.7814C38.6774 23.6743 35.1932 24.6156 32.1972 26.4862C29.2011 28.3568 26.8277 31.0728 25.3771 34.2907C23.9265 37.5086 23.4638 41.0839 24.0476 44.5644C24.5208 47.3854 25.6641 50.0414 27.3697 52.3151C28.0324 53.1986 28.0044 54.4577 27.1995 55.2141L21.6579 60.4227Z" fill="url(#paint0_angular_101_2)"/>
<path fill-rule="evenodd" clip-rule="evenodd" d="M71.1406 43.0051C72.2865 43.2964 72.2865 44.1276 71.1406 44.4189L44.2499 48.1316C43.2162 48.3944 42 48.0122 42 47.4247L42.0386 40.071C42.0386 39.4835 43.2162 39.0296 44.2499 39.2924L71.1406 43.0051Z" fill="#E00000"/>
<path d="M81.6664 36.4411C81.5007 36.4411 81.3516 36.3827 81.2191 36.2661C81.1031 36.1327 81.0451 35.9827 81.0451 35.8161V22.8661H76.6213C76.4556 22.8661 76.3065 22.8077 76.174 22.6911C76.058 22.5577 76 22.4077 76 22.2411V19.5661C76 19.3827 76.058 19.2327 76.174 19.1161C76.3065 18.9994 76.4556 18.9411 76.6213 18.9411H89.9921C90.1744 18.9411 90.3235 18.9994 90.4395 19.1161C90.5554 19.2327 90.6134 19.3827 90.6134 19.5661V22.2411C90.6134 22.4244 90.5554 22.5744 90.4395 22.6911C90.3235 22.8077 90.1744 22.8661 89.9921 22.8661H85.5683V35.8161C85.5683 35.9827 85.5103 36.1327 85.3943 36.2661C85.2784 36.3827 85.1292 36.4411 84.947 36.4411H81.6664Z" fill="#E00000"/>
<path d="M104.876 23.4411C105.025 23.4411 105.149 23.4994 105.249 23.6161C105.365 23.7161 105.423 23.8327 105.423 23.9661C105.423 24.0827 105.398 24.1911 105.348 24.2911L100.626 35.7411C100.096 36.9911 99.5906 37.9994 99.1102 38.7661C98.6462 39.5327 98.0829 40.1327 97.4202 40.5661C96.774 40.9994 95.987 41.2161 95.0592 41.2161H93.8414C93.6591 41.2161 93.51 41.1577 93.394 41.0411C93.278 40.9244 93.2201 40.7744 93.2201 40.5911V38.5661C93.2201 38.3827 93.278 38.2327 93.394 38.1161C93.51 37.9994 93.6591 37.9411 93.8414 37.9411H94.7112C95.142 37.9411 95.4734 37.8161 95.7053 37.5661C95.9373 37.3161 96.2024 36.8411 96.5006 36.1411L96.6249 35.8161L91.6792 24.2911C91.6295 24.1577 91.6046 24.0577 91.6046 23.9911C91.6378 23.8411 91.704 23.7161 91.8034 23.6161C91.9194 23.4994 92.052 23.4411 92.2011 23.4411H94.9846C95.3325 23.4411 95.5728 23.6161 95.7053 23.9661L98.5137 31.1911L101.471 23.9661C101.604 23.6161 101.852 23.4411 102.217 23.4411H104.876Z" fill="#E00000"/>
<path d="M107.952 41.1911C107.786 41.1911 107.637 41.1327 107.505 41.0161C107.389 40.8994 107.331 40.7494 107.331 40.5661V24.0661C107.331 23.8827 107.389 23.7327 107.505 23.6161C107.637 23.4994 107.786 23.4411 107.952 23.4411H110.76C110.943 23.4411 111.092 23.4994 111.208 23.6161C111.324 23.7327 111.382 23.8827 111.382 24.0661V24.9661C112.276 23.7827 113.561 23.1911 115.234 23.1911C116.858 23.1911 118.125 23.6994 119.036 24.7161C119.948 25.7327 120.445 27.1661 120.528 29.0161C120.544 29.2327 120.552 29.5411 120.552 29.9411C120.552 30.3411 120.544 30.6494 120.528 30.8661C120.461 32.6661 119.964 34.0911 119.036 35.1411C118.109 36.1744 116.841 36.6911 115.234 36.6911C113.61 36.6911 112.401 36.1327 111.605 35.0161V40.5661C111.605 40.7494 111.547 40.8994 111.431 41.0161C111.316 41.1327 111.166 41.1911 110.984 41.1911H107.952ZM113.892 33.3411C114.671 33.3411 115.226 33.1077 115.557 32.6411C115.905 32.1744 116.104 31.5327 116.154 30.7161C116.187 30.3827 116.203 30.1244 116.203 29.9411C116.203 29.7577 116.187 29.4994 116.154 29.1661C116.104 28.3494 115.905 27.7077 115.557 27.2411C115.226 26.7744 114.671 26.5411 113.892 26.5411C113.13 26.5411 112.566 26.7827 112.202 27.2661C111.854 27.7327 111.655 28.3411 111.605 29.0911L111.581 30.0161L111.605 30.9661C111.639 31.6494 111.846 32.2161 112.227 32.6661C112.608 33.1161 113.163 33.3411 113.892 33.3411Z" fill="#E00000"/>
<path d="M135.784 29.6411C135.817 30.0411 135.833 30.3494 135.833 30.5661C135.833 30.7827 135.817 31.0744 135.784 31.4411C135.684 33.1077 135.08 34.3994 133.969 35.3161C132.859 36.2327 131.277 36.6911 129.223 36.6911C127.002 36.6911 125.37 36.1577 124.327 35.0911C123.299 34.0077 122.736 32.2994 122.637 29.9661L122.612 28.4411L122.637 26.9411C122.703 24.6411 123.084 22.9077 123.78 21.7411C124.476 20.5744 125.511 19.6994 126.886 19.1161C128.278 18.5327 130.457 17.9077 133.423 17.2411C133.472 17.2244 133.522 17.2161 133.572 17.2161C133.704 17.2161 133.82 17.2494 133.92 17.3161C134.069 17.4161 134.152 17.5577 134.168 17.7411L134.591 20.0411L134.616 20.1911C134.616 20.3411 134.566 20.4661 134.467 20.5661C134.384 20.6661 134.276 20.7327 134.143 20.7661C131.923 21.2161 130.366 21.5827 129.471 21.8661C128.576 22.1494 127.905 22.5744 127.458 23.1411C127.011 23.6911 126.746 24.5494 126.663 25.7161C127.044 25.3161 127.524 24.9994 128.104 24.7661C128.701 24.5161 129.33 24.3911 129.993 24.3911C131.799 24.3911 133.191 24.8494 134.168 25.7661C135.146 26.6827 135.684 27.9744 135.784 29.6411ZM131.41 31.3411C131.426 31.2077 131.434 30.9494 131.434 30.5661C131.434 30.1661 131.426 29.8911 131.41 29.7411C131.327 28.0244 130.647 27.1661 129.372 27.1661C127.881 27.1661 127.094 28.0244 127.011 29.7411L126.986 30.5661L127.011 31.3411C127.044 32.2077 127.234 32.8577 127.582 33.2911C127.947 33.7077 128.494 33.9161 129.223 33.9161C129.935 33.9161 130.465 33.7077 130.813 33.2911C131.178 32.8577 131.376 32.2077 131.41 31.3411Z" fill="#E00000"/>
<path d="M144.389 36.6911C142.335 36.6911 140.752 36.1994 139.642 35.2161C138.532 34.2327 137.927 32.8494 137.828 31.0661C137.811 30.8494 137.803 30.4744 137.803 29.9411C137.803 29.4077 137.811 29.0327 137.828 28.8161C137.927 27.0494 138.549 25.6744 139.692 24.6911C140.835 23.6911 142.401 23.1911 144.389 23.1911C146.394 23.1911 147.968 23.6911 149.111 24.6911C150.254 25.6744 150.876 27.0494 150.975 28.8161C150.992 29.0327 151 29.4077 151 29.9411C151 30.4744 150.992 30.8494 150.975 31.0661C150.876 32.8494 150.271 34.2327 149.161 35.2161C148.051 36.1994 146.46 36.6911 144.389 36.6911ZM144.389 33.6411C145.118 33.6411 145.657 33.4244 146.005 32.9911C146.353 32.5411 146.551 31.8577 146.601 30.9411C146.618 30.7744 146.626 30.4411 146.626 29.9411C146.626 29.4411 146.618 29.1077 146.601 28.9411C146.551 28.0411 146.344 27.3661 145.98 26.9161C145.632 26.4661 145.102 26.2411 144.389 26.2411C143.014 26.2411 142.285 27.1411 142.202 28.9411L142.177 29.9411L142.202 30.9411C142.235 31.8577 142.426 32.5411 142.774 32.9911C143.138 33.4244 143.677 33.6411 144.389 33.6411Z" fill="#E00000"/>
<path d="M109.525 43.2161C109.676 43.2161 109.801 43.2737 109.901 43.3891C110.018 43.488 110.076 43.6033 110.076 43.7352C110.076 43.8176 110.034 43.9659 109.951 44.1801L104.968 55.4767C104.384 56.8116 103.824 57.8333 103.29 58.5419C102.773 59.234 102.138 59.7367 101.387 60.0498C100.652 60.3629 99.6676 60.5194 98.4322 60.5194H97.1051C96.9381 60.5194 96.7879 60.4618 96.6543 60.3464C96.5375 60.2146 96.479 60.0663 96.479 59.9015V57.2812C96.479 57.1 96.5375 56.9516 96.6543 56.8363C96.7879 56.7209 96.9381 56.6633 97.1051 56.6633H98.0566C98.5407 56.6633 98.9581 56.5644 99.3086 56.3666C99.6592 56.1524 99.9764 55.8146 100.26 55.3531L94.0501 43.9824C94.0167 43.9164 94 43.8423 94 43.7599C94 43.628 94.0584 43.5045 94.1753 43.3891C94.2921 43.2737 94.434 43.2161 94.601 43.2161H98.0566C98.3738 43.2161 98.6158 43.3891 98.7828 43.7352L102.414 50.706L105.494 43.7352C105.627 43.3891 105.878 43.2161 106.245 43.2161H109.525Z" fill="#09CF82"/>
<path d="M109.525 43.2161C109.676 43.2161 109.801 43.2737 109.901 43.3891C110.018 43.488 110.076 43.6033 110.076 43.7352C110.076 43.8176 110.034 43.9659 109.951 44.1801L104.968 55.4767C104.384 56.8116 103.824 57.8333 103.29 58.5419C102.773 59.234 102.138 59.7367 101.387 60.0498C100.652 60.3629 99.6676 60.5194 98.4322 60.5194H97.1051C96.9381 60.5194 96.7879 60.4618 96.6543 60.3464C96.5375 60.2146 96.479 60.0663 96.479 59.9015V57.2812C96.479 57.1 96.5375 56.9516 96.6543 56.8363C96.7879 56.7209 96.9381 56.6633 97.1051 56.6633H98.0566C98.5407 56.6633 98.9581 56.5644 99.3086 56.3666C99.6592 56.1524 99.9764 55.8146 100.26 55.3531L94.0501 43.9824C94.0167 43.9164 94 43.8423 94 43.7599C94 43.628 94.0584 43.5045 94.1753 43.3891C94.2921 43.2737 94.434 43.2161 94.601 43.2161H98.0566C98.3738 43.2161 98.6158 43.3891 98.7828 43.7352L102.414 50.706L105.494 43.7352C105.627 43.3891 105.878 43.2161 106.245 43.2161H109.525Z" fill="black" fill-opacity="0.2"/>
<path d="M111.088 65.2161C110.921 65.2161 110.771 65.1584 110.638 65.043C110.521 64.9277 110.462 64.7794 110.462 64.5981V48.2835C110.462 48.1022 110.521 47.9539 110.638 47.8385C110.771 47.7232 110.921 47.6655 111.088 47.6655H113.918C114.102 47.6655 114.252 47.7232 114.369 47.8385C114.486 47.9539 114.544 48.1022 114.544 48.2835V49.1734C115.445 48.0033 116.739 47.4183 118.425 47.4183C120.061 47.4183 121.338 47.9209 122.257 48.9262C123.175 49.9314 123.675 51.3486 123.759 53.1779C123.776 53.3921 123.784 53.697 123.784 54.0925C123.784 54.488 123.776 54.7928 123.759 55.0071C123.692 56.7869 123.191 58.1958 122.257 59.234C121.322 60.2558 120.045 60.7666 118.425 60.7666C116.789 60.7666 115.571 60.2146 114.769 59.1104V64.5981C114.769 64.7794 114.711 64.9277 114.594 65.043C114.477 65.1584 114.327 65.2161 114.143 65.2161H111.088ZM117.073 57.4543C117.858 57.4543 118.417 57.2236 118.751 56.7621C119.101 56.3007 119.302 55.6663 119.352 54.8588C119.385 54.5292 119.402 54.2737 119.402 54.0925C119.402 53.9112 119.385 53.6558 119.352 53.3262C119.302 52.5187 119.101 51.8842 118.751 51.4228C118.417 50.9614 117.858 50.7307 117.073 50.7307C116.305 50.7307 115.738 50.9696 115.37 51.4475C115.02 51.9089 114.819 52.5104 114.769 53.252L114.744 54.1666L114.769 55.106C114.803 55.7816 115.011 56.3419 115.395 56.7869C115.779 57.2318 116.339 57.4543 117.073 57.4543Z" fill="#09CF82"/>
<path d="M111.088 65.2161C110.921 65.2161 110.771 65.1584 110.638 65.043C110.521 64.9277 110.462 64.7794 110.462 64.5981V48.2835C110.462 48.1022 110.521 47.9539 110.638 47.8385C110.771 47.7232 110.921 47.6655 111.088 47.6655H113.918C114.102 47.6655 114.252 47.7232 114.369 47.8385C114.486 47.9539 114.544 48.1022 114.544 48.2835V49.1734C115.445 48.0033 116.739 47.4183 118.425 47.4183C120.061 47.4183 121.338 47.9209 122.257 48.9262C123.175 49.9314 123.675 51.3486 123.759 53.1779C123.776 53.3921 123.784 53.697 123.784 54.0925C123.784 54.488 123.776 54.7928 123.759 55.0071C123.692 56.7869 123.191 58.1958 122.257 59.234C121.322 60.2558 120.045 60.7666 118.425 60.7666C116.789 60.7666 115.571 60.2146 114.769 59.1104V64.5981C114.769 64.7794 114.711 64.9277 114.594 65.043C114.477 65.1584 114.327 65.2161 114.143 65.2161H111.088ZM117.073 57.4543C117.858 57.4543 118.417 57.2236 118.751 56.7621C119.101 56.3007 119.302 55.6663 119.352 54.8588C119.385 54.5292 119.402 54.2737 119.402 54.0925C119.402 53.9112 119.385 53.6558 119.352 53.3262C119.302 52.5187 119.101 51.8842 118.751 51.4228C118.417 50.9614 117.858 50.7307 117.073 50.7307C116.305 50.7307 115.738 50.9696 115.37 51.4475C115.02 51.9089 114.819 52.5104 114.769 53.252L114.744 54.1666L114.769 55.106C114.803 55.7816 115.011 56.3419 115.395 56.7869C115.779 57.2318 116.339 57.4543 117.073 57.4543Z" fill="black" fill-opacity="0.2"/>
<path d="M132.42 60.7666C130.349 60.7666 128.755 60.2805 127.637 59.3082C126.518 58.3359 125.909 56.9681 125.809 55.2048C125.792 54.9906 125.784 54.6198 125.784 54.0925C125.784 53.5651 125.792 53.1943 125.809 52.9801C125.909 51.2333 126.535 49.8737 127.687 48.9015C128.839 47.9127 130.416 47.4183 132.42 47.4183C134.439 47.4183 136.025 47.9127 137.177 48.9015C138.329 49.8737 138.955 51.2333 139.055 52.9801C139.072 53.1943 139.08 53.5651 139.08 54.0925C139.08 54.6198 139.072 54.9906 139.055 55.2048C138.955 56.9681 138.346 58.3359 137.227 59.3082C136.109 60.2805 134.506 60.7666 132.42 60.7666ZM132.42 57.7509C133.154 57.7509 133.697 57.5367 134.047 57.1082C134.398 56.6633 134.598 55.9876 134.648 55.0812C134.665 54.9164 134.673 54.5869 134.673 54.0925C134.673 53.5981 134.665 53.2685 134.648 53.1037C134.598 52.2138 134.389 51.5464 134.022 51.1015C133.672 50.6565 133.137 50.434 132.42 50.434C131.034 50.434 130.299 51.3239 130.216 53.1037L130.191 54.0925L130.216 55.0812C130.249 55.9876 130.441 56.6633 130.792 57.1082C131.159 57.5367 131.702 57.7509 132.42 57.7509Z" fill="#09CF82"/>
<path d="M132.42 60.7666C130.349 60.7666 128.755 60.2805 127.637 59.3082C126.518 58.3359 125.909 56.9681 125.809 55.2048C125.792 54.9906 125.784 54.6198 125.784 54.0925C125.784 53.5651 125.792 53.1943 125.809 52.9801C125.909 51.2333 126.535 49.8737 127.687 48.9015C128.839 47.9127 130.416 47.4183 132.42 47.4183C134.439 47.4183 136.025 47.9127 137.177 48.9015C138.329 49.8737 138.955 51.2333 139.055 52.9801C139.072 53.1943 139.08 53.5651 139.08 54.0925C139.08 54.6198 139.072 54.9906 139.055 55.2048C138.955 56.9681 138.346 58.3359 137.227 59.3082C136.109 60.2805 134.506 60.7666 132.42 60.7666ZM132.42 57.7509C133.154 57.7509 133.697 57.5367 134.047 57.1082C134.398 56.6633 134.598 55.9876 134.648 55.0812C134.665 54.9164 134.673 54.5869 134.673 54.0925C134.673 53.5981 134.665 53.2685 134.648 53.1037C134.598 52.2138 134.389 51.5464 134.022 51.1015C133.672 50.6565 133.137 50.434 132.42 50.434C131.034 50.434 130.299 51.3239 130.216 53.1037L130.191 54.0925L130.216 55.0812C130.249 55.9876 130.441 56.6633 130.792 57.1082C131.159 57.5367 131.702 57.7509 132.42 57.7509Z" fill="black" fill-opacity="0.2"/>
<path d="M154.689 59.7037C154.756 59.7696 154.789 59.8767 154.789 60.0251C154.789 60.1569 154.739 60.2722 154.639 60.3711C154.539 60.47 154.405 60.5194 154.238 60.5194H150.707C150.407 60.5194 150.165 60.3876 149.981 60.1239L147.052 55.6251H145.724V59.9015C145.724 60.0827 145.658 60.231 145.524 60.3464C145.407 60.4618 145.257 60.5194 145.073 60.5194H142.194C142.01 60.5194 141.86 60.4618 141.743 60.3464C141.626 60.231 141.568 60.0827 141.568 59.9015V48.2835C141.568 48.1022 141.626 47.9539 141.743 47.8385C141.86 47.7232 142.01 47.6655 142.194 47.6655H145.073C145.257 47.6655 145.407 47.7232 145.524 47.8385C145.658 47.9539 145.724 48.1022 145.724 48.2835V52.3869H147.102L149.781 48.061C149.965 47.7973 150.198 47.6655 150.482 47.6655H153.687C153.838 47.6655 153.963 47.7149 154.063 47.8138C154.18 47.9127 154.238 48.028 154.238 48.1599C154.238 48.2752 154.196 48.3906 154.113 48.506L150.707 53.8947L154.689 59.7037Z" fill="#09CF82"/>
<path d="M154.689 59.7037C154.756 59.7696 154.789 59.8767 154.789 60.0251C154.789 60.1569 154.739 60.2722 154.639 60.3711C154.539 60.47 154.405 60.5194 154.238 60.5194H150.707C150.407 60.5194 150.165 60.3876 149.981 60.1239L147.052 55.6251H145.724V59.9015C145.724 60.0827 145.658 60.231 145.524 60.3464C145.407 60.4618 145.257 60.5194 145.073 60.5194H142.194C142.01 60.5194 141.86 60.4618 141.743 60.3464C141.626 60.231 141.568 60.0827 141.568 59.9015V48.2835C141.568 48.1022 141.626 47.9539 141.743 47.8385C141.86 47.7232 142.01 47.6655 142.194 47.6655H145.073C145.257 47.6655 145.407 47.7232 145.524 47.8385C145.658 47.9539 145.724 48.1022 145.724 48.2835V52.3869H147.102L149.781 48.061C149.965 47.7973 150.198 47.6655 150.482 47.6655H153.687C153.838 47.6655 153.963 47.7149 154.063 47.8138C154.18 47.9127 154.238 48.028 154.238 48.1599C154.238 48.2752 154.196 48.3906 154.113 48.506L150.707 53.8947L154.689 59.7037Z" fill="black" fill-opacity="0.2"/>
<path d="M169.399 47.6655C169.566 47.6655 169.708 47.7232 169.825 47.8385C169.942 47.9539 170 48.094 170 48.2588V59.9015C170 60.0663 169.942 60.2146 169.825 60.3464C169.708 60.4618 169.558 60.5194 169.374 60.5194H166.419C166.252 60.5194 166.102 60.4618 165.968 60.3464C165.852 60.2146 165.793 60.0663 165.793 59.9015V52.9801L160.71 60.1239C160.526 60.3876 160.293 60.5194 160.009 60.5194H157.354C157.187 60.5194 157.046 60.4618 156.929 60.3464C156.812 60.231 156.753 60.091 156.753 59.9262V48.2835C156.753 48.1022 156.812 47.9539 156.929 47.8385C157.046 47.7232 157.196 47.6655 157.379 47.6655H160.334C160.518 47.6655 160.668 47.7232 160.785 47.8385C160.902 47.9539 160.96 48.1022 160.96 48.2835V55.1801L166.019 48.061C166.202 47.7973 166.436 47.6655 166.72 47.6655H169.399Z" fill="#09CF82"/>
<path d="M169.399 47.6655C169.566 47.6655 169.708 47.7232 169.825 47.8385C169.942 47.9539 170 48.094 170 48.2588V59.9015C170 60.0663 169.942 60.2146 169.825 60.3464C169.708 60.4618 169.558 60.5194 169.374 60.5194H166.419C166.252 60.5194 166.102 60.4618 165.968 60.3464C165.852 60.2146 165.793 60.0663 165.793 59.9015V52.9801L160.71 60.1239C160.526 60.3876 160.293 60.5194 160.009 60.5194H157.354C157.187 60.5194 157.046 60.4618 156.929 60.3464C156.812 60.231 156.753 60.091 156.753 59.9262V48.2835C156.753 48.1022 156.812 47.9539 156.929 47.8385C157.046 47.7232 157.196 47.6655 157.379 47.6655H160.334C160.518 47.6655 160.668 47.7232 160.785 47.8385C160.902 47.9539 160.96 48.1022 160.96 48.2835V55.1801L166.019 48.061C166.202 47.7973 166.436 47.6655 166.72 47.6655H169.399Z" fill="black" fill-opacity="0.2"/>
<defs>
<radialGradient id="paint0_angular_101_2" cx="0" cy="0" r="1" gradientUnits="userSpaceOnUse" gradientTransform="translate(41.6667 41.6163) rotate(46.7051) scale(29.4575 29.4597)">
<stop offset="0.174511" stop-color="#07A668" stop-opacity="0.33"/>
<stop offset="0.927083" stop-color="#07A668"/>
</radialGradient>
</defs>
</svg>
