<svg width="36" height="40" viewBox="0 0 36 40" fill="none" xmlns="http://www.w3.org/2000/svg">
<path d="M16.5869 39.9986H10.6345C10.332 40.0147 10.0404 39.8903 9.85386 39.6656C9.6648 39.4376 9.58763 39.1446 9.64161 38.8598C9.73595 38.3248 9.85386 37.6189 10.0024 36.722C10.085 36.2292 10.1746 35.6942 10.2713 35.1081C10.5661 33.3322 10.7665 32.1401 10.901 31.3609C10.9544 31.0486 11.0181 30.6787 11.092 30.2509V30.2066C11.2131 29.4977 11.3608 28.6363 11.5354 27.6226L11.7712 26.2484V26.2373C11.941 25.2502 12.0746 24.4651 12.1721 23.882C12.1829 23.6423 12.299 23.4175 12.4926 23.2614C12.6862 23.1052 12.9399 23.0317 13.1933 23.0584H16.7779C18.4976 23.0758 20.2143 22.9181 21.8979 22.5878C24.4328 22.1116 26.7842 21.0003 28.7041 19.3711C30.3862 17.8499 31.649 15.9655 32.3831 13.8813C32.7413 12.913 33.0189 11.9199 33.2132 10.911C33.2297 10.8178 33.2486 10.7645 33.2722 10.7467C33.2863 10.7296 33.3081 10.7198 33.3311 10.7201H33.3547C33.4065 10.7406 33.4555 10.7666 33.5009 10.7978C34.7383 11.6801 35.5662 12.9779 35.8121 14.4207C36.0912 15.93 36.0591 17.4758 35.7177 18.9738C35.2711 21.8727 33.7134 24.5178 31.3383 26.4105C28.7145 28.1707 25.5354 29.0439 22.3177 28.8879H21.2824C20.897 28.8849 20.524 29.0161 20.2353 29.2564C19.9359 29.501 19.7366 29.8362 19.6716 30.2043L19.5749 30.635L18.2708 38.3559L18.2212 38.6911C18.1539 39.063 17.9462 39.3996 17.6364 39.639C17.3447 39.8751 16.9716 40.003 16.5869 39.9986ZM8.14879 35.5588H1.15632C0.822636 35.5654 0.503347 35.431 0.286091 35.1925C0.0596498 34.9582 -0.0402876 34.6392 0.0148826 34.3267L5.51217 1.49413C5.5813 1.07289 5.81409 0.690802 6.16543 0.421908C6.50478 0.146447 6.93896 -0.00346159 7.38704 6.06872e-05H21.5701C22.3476 0.0289645 23.1206 0.126327 23.8789 0.290933C24.7827 0.451933 25.6691 0.689696 26.5273 1.00131C28.0893 1.5212 29.4436 2.48065 30.4068 3.74957C31.3199 5.04483 31.7876 6.5732 31.7463 8.12724C31.7063 9.92949 31.3386 11.712 30.6591 13.3973C29.5759 16.6709 26.9191 19.2738 23.4874 20.4234C21.5612 21.0373 19.5426 21.3559 17.509 21.3668C17.4854 21.3802 16.4714 21.3824 15.3865 21.3824L13.264 21.3668C11.8639 21.2323 10.612 22.1893 10.4647 23.5068C10.434 23.6267 9.71708 27.829 8.4483 35.3368C8.44835 35.408 8.41448 35.4755 8.356 35.5206C8.29751 35.5658 8.2206 35.5838 8.14643 35.5699L8.14879 35.5588Z" fill="#07A568"/>
</svg>
