<svg width="49" height="40" viewBox="0 0 49 40" fill="none" xmlns="http://www.w3.org/2000/svg">
<path d="M43.2281 6.30716C45.328 5.04556 46.8992 3.05903 47.6484 0.718477C45.6752 1.89507 43.5163 2.7239 41.2651 3.16912C38.144 -0.148952 33.1988 -0.956419 29.1929 1.19791C25.187 3.35223 23.1121 7.93501 24.1275 12.3855C16.0451 11.9777 8.51484 8.14082 3.41065 1.82962C0.746876 6.44704 2.10812 12.3497 6.52146 15.3187C4.92556 15.2672 3.36504 14.8329 1.97003 14.0522C1.97003 14.0946 1.97003 14.137 1.97003 14.1793C1.97095 18.9892 5.34407 23.1322 10.0352 24.0855C8.55489 24.4902 7.00216 24.5498 5.49546 24.2597C6.81474 28.373 10.587 31.1909 14.8865 31.275C11.3255 34.0837 6.92783 35.6069 2.40104 35.5995C1.59867 35.6006 0.796936 35.5543 0 35.4606C4.59686 38.4292 9.94704 40.0049 15.4112 39.9993C23.0131 40.0518 30.3188 37.04 35.6941 31.6375C41.0694 26.2351 44.0657 18.8929 44.0129 11.2532C44.0129 10.8153 44.0027 10.3798 43.9824 9.94663C45.9511 8.51674 47.6503 6.74538 49 4.71577C47.1659 5.5328 45.2203 6.06921 43.2281 6.30716Z" fill="#07A568"/>
</svg>
